<?xml version="1.0" standalone="yes"?>

<svg version="1.1" viewBox="0.0 0.0 957.0 634.0" fill="none" stroke="none" stroke-linecap="square" stroke-miterlimit="10" xmlns="http://www.w3.org/2000/svg" xmlns:xlink="http://www.w3.org/1999/xlink"><clipPath id="p.0"><path d="m0 0l957.0 0l0 634.0l-957.0 0l0 -634.0z" clip-rule="nonzero"></path></clipPath><g clip-path="url(#p.0)"><path fill="#000000" fill-opacity="0.0" d="m0 0l957.56696 0l0 634.89764l-957.56696 0z" fill-rule="nonzero"></path><path fill="#000000" fill-opacity="0.0" d="m72.855644 73.80577l211.93701 0l0 63.59056l-211.93701 0z" fill-rule="nonzero"></path><path fill="#000000" d="m92.14108 107.51355l11.96875 -6.671875q0.28125 -0.15625 0.4375 -0.15625q0.21875 0 0.375 0.171875q0.171875 0.15625 0.171875 0.375q0 0.34375 -0.453125 0.59375l-10.25 5.6875l10.25 5.703125q0.4375 0.25 0.4375 0.578125q0 0.21875 -0.171875 0.390625q-0.15625 0.15625 -0.375 0.15625q-0.140625 0 -0.4375 -0.15625l-11.953125 -6.671875zm23.355728 -8.859375l0 15.4375l4.359375 0q0.40625 0 0.578125 0.15625q0.171875 0.15625 0.171875 0.40625q0 0.234375 -0.171875 0.390625q-0.171875 0.15625 -0.578125 0.15625l-9.8125 0q-0.390625 0 -0.5625 -0.15625q-0.171875 -0.15625 -0.171875 -0.390625q0 -0.25 0.171875 -0.40625q0.171875 -0.15625 0.5625 -0.15625l4.34375 0l0 -14.3125l-3.1875 0q-0.390625 0 -0.578125 -0.15625q-0.171875 -0.15625 -0.171875 -0.40625q0 -0.25 0.171875 -0.40625q0.171875 -0.15625 0.578125 -0.15625l4.296875 0zm21.433853 11.109375l-11.28125 0q0.28125 2.140625 1.796875 3.453125q1.515625 1.3125 3.734375 1.3125q1.234375 0 2.59375 -0.40625q1.359375 -0.40625 2.21875 -1.078125q0.25 -0.203125 0.4375 -0.203125q0.203125 0 0.359375 0.171875q0.171875 0.15625 0.171875 0.375q0 0.234375 -0.21875 0.4375q-0.625 0.65625 -2.25 1.234375q-1.609375 0.578125 -3.3125 0.578125q-2.84375 0 -4.75 -1.859375q-1.90625 -1.875 -1.90625 -4.53125q0 -2.40625 1.78125 -4.125q1.796875 -1.734375 4.421875 -1.734375q2.71875 0 4.46875 1.78125q1.765625 1.765625 1.734375 4.59375zm-1.125 -1.125q-0.328125 -1.828125 -1.734375 -2.96875q-1.40625 -1.15625 -3.34375 -1.15625q-1.9375 0 -3.328125 1.140625q-1.390625 1.125 -1.734375 2.984375l10.140625 0zm12.105728 6.5625l-1.875 0l-4.546875 -10.296875l-1.140625 0q-0.390625 0 -0.5625 -0.15625q-0.171875 -0.15625 -0.171875 -0.40625q0 -0.234375 0.171875 -0.390625q0.171875 -0.171875 0.5625 -0.171875l4.15625 0q0.390625 0 0.5625 0.171875q0.171875 0.15625 0.171875 0.40625q0 0.234375 -0.171875 0.390625q-0.171875 0.15625 -0.5625 0.15625l-1.828125 0l4.046875 9.1875l0.5 0l3.96875 -9.1875l-1.84375 0q-0.390625 0 -0.5625 -0.15625q-0.171875 -0.15625 -0.171875 -0.40625q0 -0.234375 0.171875 -0.390625q0.171875 -0.171875 0.5625 -0.171875l4.171875 0q0.40625 0 0.5625 0.171875q0.171875 0.15625 0.171875 0.40625q0 0.234375 -0.171875 0.390625q-0.15625 0.15625 -0.5625 0.15625l-1.125 0l-4.484375 10.296875zm21.011978 -5.4375l-11.28125 0q0.28125 2.140625 1.796875 3.453125q1.515625 1.3125 3.734375 1.3125q1.234375 0 2.59375 -0.40625q1.359375 -0.40625 2.21875 -1.078125q0.25 -0.203125 0.4375 -0.203125q0.203125 0 0.359375 0.171875q0.171875 0.15625 0.171875 0.375q0 0.234375 -0.21875 0.4375q-0.625 0.65625 -2.25 1.234375q-1.609375 0.578125 -3.3125 0.578125q-2.84375 0 -4.75 -1.859375q-1.90625 -1.875 -1.90625 -4.53125q0 -2.40625 1.78125 -4.125q1.796875 -1.734375 4.421875 -1.734375q2.71875 0 4.46875 1.78125q1.765625 1.765625 1.734375 4.59375zm-1.125 -1.125q-0.328125 -1.828125 -1.734375 -2.96875q-1.40625 -1.15625 -3.34375 -1.15625q-1.9375 0 -3.328125 1.140625q-1.390625 1.125 -1.734375 2.984375l10.140625 0zm11.683853 -9.984375l0 15.4375l4.359375 0q0.40625 0 0.578125 0.15625q0.171875 0.15625 0.171875 0.40625q0 0.234375 -0.171875 0.390625q-0.171875 0.15625 -0.578125 0.15625l-9.8125 0q-0.390625 0 -0.5625 -0.15625q-0.171875 -0.15625 -0.171875 -0.390625q0 -0.25 0.171875 -0.40625q0.171875 -0.15625 0.5625 -0.15625l4.34375 0l0 -14.3125l-3.1875 0q-0.390625 0 -0.578125 -0.15625q-0.171875 -0.15625 -0.171875 -0.40625q0 -0.25 0.171875 -0.40625q0.171875 -0.15625 0.578125 -0.15625l4.296875 0zm21.090103 8.125l0 1.578125l-11.296875 0l0 -1.578125l11.296875 0zm16.543228 2.734375q0 2.53125 -1.8125 4.328125q-1.8125 1.796875 -4.375 1.796875q-2.578125 0 -4.390625 -1.796875q-1.8125 -1.8125 -1.8125 -4.328125q0 -2.53125 1.8125 -4.328125q1.8125 -1.796875 4.390625 -1.796875q2.5625 0 4.375 1.796875q1.8125 1.78125 1.8125 4.328125zm-1.125 0q0 -2.078125 -1.484375 -3.53125q-1.484375 -1.46875 -3.59375 -1.46875q-2.109375 0 -3.59375 1.46875q-1.484375 1.46875 -1.484375 3.53125q0 2.0625 1.484375 3.546875q1.484375 1.46875 3.59375 1.46875q2.109375 0 3.59375 -1.46875q1.484375 -1.46875 1.484375 -3.546875zm7.340088 -5.734375l0 1.671875q1.171875 -1.171875 2.09375 -1.609375q0.9375 -0.453125 2.125 -0.453125q1.265625 0 2.296875 0.546875q0.734375 0.390625 1.328125 1.3125q0.609375 0.90625 0.609375 1.875l0 6.96875l0.9375 0q0.390625 0 0.5625 0.15625q0.171875 0.15625 0.171875 0.40625q0 0.234375 -0.171875 0.390625q-0.171875 0.15625 -0.5625 0.15625l-2.96875 0q-0.40625 0 -0.578125 -0.15625q-0.171875 -0.15625 -0.171875 -0.390625q0 -0.25 0.171875 -0.40625q0.171875 -0.15625 0.578125 -0.15625l0.921875 0l0 -6.78125q0 -1.1875 -0.859375 -1.984375q-0.84375 -0.8125 -2.28125 -0.8125q-1.09375 0 -1.90625 0.4375q-0.796875 0.4375 -2.296875 2.1875l0 6.953125l1.265625 0q0.390625 0 0.5625 0.15625q0.171875 0.15625 0.171875 0.40625q0 0.234375 -0.171875 0.390625q-0.171875 0.15625 -0.5625 0.15625l-3.625 0q-0.390625 0 -0.5625 -0.15625q-0.171875 -0.15625 -0.171875 -0.390625q0 -0.25 0.171875 -0.40625q0.171875 -0.15625 0.5625 -0.15625l1.265625 0l0 -9.1875l-0.9375 0q-0.40625 0 -0.578125 -0.15625q-0.171875 -0.15625 -0.171875 -0.40625q0 -0.234375 0.171875 -0.390625q0.171875 -0.171875 0.578125 -0.171875l2.03125 0zm25.574493 5.984375l-11.28125 0q0.28125 2.140625 1.796875 3.453125q1.515625 1.3125 3.734375 1.3125q1.234375 0 2.59375 -0.40625q1.359375 -0.40625 2.21875 -1.078125q0.25 -0.203125 0.4375 -0.203125q0.203125 0 0.359375 0.171875q0.171875 0.15625 0.171875 0.375q0 0.234375 -0.21875 0.4375q-0.625 0.65625 -2.25 1.234375q-1.609375 0.578125 -3.3125 0.578125q-2.84375 0 -4.75 -1.859375q-1.90625 -1.875 -1.90625 -4.53125q0 -2.40625 1.78125 -4.125q1.796875 -1.734375 4.421875 -1.734375q2.71875 0 4.46875 1.78125q1.765625 1.765625 1.734375 4.59375zm-1.125 -1.125q-0.328125 -1.828125 -1.734375 -2.96875q-1.40625 -1.15625 -3.34375 -1.15625q-1.9375 0 -3.328125 1.140625q-1.390625 1.125 -1.734375 2.984375l10.140625 0zm17.933853 -1.125l-11.968765 6.671875q-0.28125 0.15625 -0.4375 0.15625q-0.21875 0 -0.390625 -0.15625q-0.15625 -0.171875 -0.15625 -0.390625q0 -0.328125 0.453125 -0.578125l10.250015 -5.703125l-10.250015 -5.6875q-0.4375 -0.25 -0.4375 -0.59375q0 -0.21875 0.15625 -0.375q0.171875 -0.171875 0.390625 -0.171875q0.140625 0 0.4375 0.15625l11.95314 6.671875z" fill-rule="nonzero"></path><path fill="#000000" fill-opacity="0.0" d="m372.8151 285.65353l211.93698 0l0 63.590576l-211.93698 0z" fill-rule="nonzero"></path><path fill="#000000" d="m392.10052 319.36133l11.96875 -6.671875q0.28125 -0.15625 0.4375 -0.15625q0.21875 0 0.375 0.171875q0.171875 0.15625 0.171875 0.375q0 0.34375 -0.453125 0.59375l-10.25 5.6875l10.25 5.703125q0.4375 0.25 0.4375 0.578125q0 0.21875 -0.171875 0.390625q-0.15625 0.15625 -0.375 0.15625q-0.140625 0 -0.4375 -0.15625l-11.953125 -6.671875zm23.355713 -8.859375l0 15.4375l4.359375 0q0.40625 0 0.578125 0.15625q0.171875 0.15625 0.171875 0.40625q0 0.234375 -0.171875 0.390625q-0.171875 0.15625 -0.578125 0.15625l-9.8125 0q-0.390625 0 -0.5625 -0.15625q-0.171875 -0.15625 -0.171875 -0.390625q0 -0.25 0.171875 -0.40625q0.171875 -0.15625 0.5625 -0.15625l4.34375 0l0 -14.3125l-3.1875 0q-0.390625 0 -0.578125 -0.15625q-0.171875 -0.15625 -0.171875 -0.40625q0 -0.25 0.171875 -0.40625q0.171875 -0.15625 0.578125 -0.15625l4.296875 0zm21.433868 11.109375l-11.28125 0q0.28125 2.140625 1.796875 3.453125q1.515625 1.3125 3.734375 1.3125q1.234375 0 2.59375 -0.40625q1.359375 -0.40625 2.21875 -1.078125q0.25 -0.203125 0.4375 -0.203125q0.203125 0 0.359375 0.171875q0.171875 0.15625 0.171875 0.375q0 0.234375 -0.21875 0.4375q-0.625 0.65625 -2.25 1.234375q-1.609375 0.578125 -3.3125 0.578125q-2.84375 0 -4.75 -1.859375q-1.90625 -1.875 -1.90625 -4.53125q0 -2.40625 1.78125 -4.125q1.796875 -1.734375 4.421875 -1.734375q2.71875 0 4.46875 1.78125q1.765625 1.765625 1.734375 4.59375zm-1.125 -1.125q-0.328125 -1.828125 -1.734375 -2.96875q-1.40625 -1.15625 -3.34375 -1.15625q-1.9375 0 -3.328125 1.140625q-1.390625 1.125 -1.734375 2.984375l10.140625 0zm12.105713 6.5625l-1.875 0l-4.546875 -10.296875l-1.140625 0q-0.390625 0 -0.5625 -0.15625q-0.171875 -0.15625 -0.171875 -0.40625q0 -0.234375 0.171875 -0.390625q0.171875 -0.171875 0.5625 -0.171875l4.15625 0q0.390625 0 0.5625 0.171875q0.171875 0.15625 0.171875 0.40625q0 0.234375 -0.171875 0.390625q-0.171875 0.15625 -0.5625 0.15625l-1.828125 0l4.046875 9.1875l0.5 0l3.96875 -9.1875l-1.84375 0q-0.390625 0 -0.5625 -0.15625q-0.171875 -0.15625 -0.171875 -0.40625q0 -0.234375 0.171875 -0.390625q0.171875 -0.171875 0.5625 -0.171875l4.171875 0q0.40625 0 0.5625 0.171875q0.171875 0.15625 0.171875 0.40625q0 0.234375 -0.171875 0.390625q-0.15625 0.15625 -0.5625 0.15625l-1.125 0l-4.484375 10.296875zm21.011993 -5.4375l-11.28125 0q0.28125 2.140625 1.796875 3.453125q1.515625 1.3125 3.734375 1.3125q1.234375 0 2.59375 -0.40625q1.359375 -0.40625 2.21875 -1.078125q0.25 -0.203125 0.4375 -0.203125q0.203125 0 0.359375 0.171875q0.171875 0.15625 0.171875 0.375q0 0.234375 -0.21875 0.4375q-0.625 0.65625 -2.25 1.234375q-1.609375 0.578125 -3.3125 0.578125q-2.84375 0 -4.75 -1.859375q-1.90625 -1.875 -1.90625 -4.53125q0 -2.40625 1.78125 -4.125q1.796875 -1.734375 4.421875 -1.734375q2.71875 0 4.46875 1.78125q1.765625 1.765625 1.734375 4.59375zm-1.125 -1.125q-0.328125 -1.828125 -1.734375 -2.96875q-1.40625 -1.15625 -3.34375 -1.15625q-1.9375 0 -3.328125 1.140625q-1.390625 1.125 -1.734375 2.984375l10.140625 0zm11.683838 -9.984375l0 15.4375l4.359375 0q0.40625 0 0.578125 0.15625q0.171875 0.15625 0.171875 0.40625q0 0.234375 -0.171875 0.390625q-0.171875 0.15625 -0.578125 0.15625l-9.8125 0q-0.390625 0 -0.5625 -0.15625q-0.171875 -0.15625 -0.171875 -0.390625q0 -0.25 0.171875 -0.40625q0.171875 -0.15625 0.5625 -0.15625l4.34375 0l0 -14.3125l-3.1875 0q-0.390625 0 -0.578125 -0.15625q-0.171875 -0.15625 -0.171875 -0.40625q0 -0.25 0.171875 -0.40625q0.171875 -0.15625 0.578125 -0.15625l4.296875 0zm21.090118 8.125l0 1.578125l-11.296875 0l0 -1.578125l11.296875 0zm8.074493 -3.0l6.015625 0q0.390625 0 0.5625 0.171875q0.171875 0.15625 0.171875 0.40625q0 0.234375 -0.171875 0.390625q-0.171875 0.15625 -0.5625 0.15625l-6.015625 0l0 7.375q0 0.953125 0.765625 1.609375q0.78125 0.640625 2.265625 0.640625q1.125 0 2.421875 -0.328125q1.3125 -0.34375 2.03125 -0.765625q0.265625 -0.171875 0.4375 -0.171875q0.21875 0 0.375 0.171875q0.15625 0.15625 0.15625 0.375q0 0.203125 -0.171875 0.375q-0.421875 0.4375 -2.0625 0.953125q-1.625 0.5 -3.109375 0.5q-1.9375 0 -3.09375 -0.90625q-1.140625 -0.921875 -1.140625 -2.453125l0 -7.375l-2.046875 0q-0.390625 0 -0.5625 -0.15625q-0.171875 -0.15625 -0.171875 -0.40625q0 -0.234375 0.171875 -0.390625q0.171875 -0.171875 0.5625 -0.171875l2.046875 0l0 -3.265625q0 -0.390625 0.15625 -0.5625q0.15625 -0.171875 0.40625 -0.171875q0.25 0 0.40625 0.171875q0.15625 0.171875 0.15625 0.5625l0 3.265625zm22.090088 11.421875l-1.375 0.015625l-2.4375 -7.125l-2.421875 7.125l-1.375 -0.015625l-2.296875 -10.296875l-0.53125 0q-0.40625 0 -0.578125 -0.15625q-0.171875 -0.15625 -0.171875 -0.40625q0 -0.234375 0.171875 -0.390625q0.171875 -0.171875 0.578125 -0.171875l3.03125 0q0.40625 0 0.578125 0.171875q0.171875 0.15625 0.171875 0.40625q0 0.234375 -0.171875 0.390625q-0.171875 0.15625 -0.578125 0.15625l-1.40625 0l1.96875 8.78125l2.359375 -7.015625l1.3125 0l2.4375 7.015625l1.875 -8.78125l-1.390625 0q-0.40625 0 -0.578125 -0.15625q-0.171875 -0.15625 -0.171875 -0.40625q0 -0.234375 0.171875 -0.390625q0.171875 -0.171875 0.578125 -0.171875l3.03125 0q0.40625 0 0.578125 0.171875q0.171875 0.15625 0.171875 0.40625q0 0.234375 -0.171875 0.390625q-0.171875 0.15625 -0.578125 0.15625l-0.53125 0l-2.25 10.296875zm18.371338 -5.6875q0 2.53125 -1.8125 4.328125q-1.8125 1.796875 -4.375 1.796875q-2.578125 0 -4.390625 -1.796875q-1.8125 -1.8125 -1.8125 -4.328125q0 -2.53125 1.8125 -4.328125q1.8125 -1.796875 4.390625 -1.796875q2.5625 0 4.375 1.796875q1.8125 1.78125 1.8125 4.328125zm-1.125 0q0 -2.078125 -1.484375 -3.53125q-1.484375 -1.46875 -3.59375 -1.46875q-2.109375 0 -3.59375 1.46875q-1.484375 1.46875 -1.484375 3.53125q0 2.0625 1.484375 3.546875q1.484375 1.46875 3.59375 1.46875q2.109375 0 3.59375 -1.46875q1.484375 -1.46875 1.484375 -3.546875zm17.730713 -2.0l-11.96875 6.671875q-0.28125 0.15625 -0.4375 0.15625q-0.21875 0 -0.390625 -0.15625q-0.15625 -0.171875 -0.15625 -0.390625q0 -0.328125 0.453125 -0.578125l10.25 -5.703125l-10.25 -5.6875q-0.4375 -0.25 -0.4375 -0.59375q0 -0.21875 0.15625 -0.375q0.171875 -0.171875 0.390625 -0.171875q0.140625 0 0.4375 0.15625l11.953125 6.671875z" fill-rule="nonzero"></path><path fill="#000000" fill-opacity="0.0" d="m629.22046 485.21783l230.33075 0l0 63.590576l-230.33075 0z" fill-rule="nonzero"></path><path fill="#000000" d="m641.7064 518.9256l11.96875 -6.671875q0.28125 -0.15625 0.4375 -0.15625q0.21875 0 0.375 0.171875q0.171875 0.15625 0.171875 0.375q0 0.34375 -0.453125 0.59375l-10.25 5.6875l10.25 5.703125q0.4375 0.25 0.4375 0.578125q0 0.21875 -0.171875 0.390625q-0.15625 0.15625 -0.375 0.15625q-0.140625 0 -0.4375 -0.15625l-11.953125 -6.671875zm23.355713 -8.8593445l0 15.4374695l4.359375 0q0.40625 0 0.578125 0.15625q0.171875 0.15625 0.171875 0.40625q0 0.234375 -0.171875 0.390625q-0.171875 0.15625 -0.578125 0.15625l-9.8125 0q-0.390625 0 -0.5625 -0.15625q-0.171875 -0.15625 -0.171875 -0.390625q0 -0.25 0.171875 -0.40625q0.171875 -0.15625 0.5625 -0.15625l4.34375 0l0 -14.3124695l-3.1875 0q-0.390625 0 -0.578125 -0.15625q-0.171875 -0.15625 -0.171875 -0.40625q0 -0.25 0.171875 -0.40625q0.171875 -0.15625 0.578125 -0.15625l4.296875 0zm21.433838 11.1093445l-11.28125 0q0.28125 2.140625 1.796875 3.453125q1.515625 1.3125 3.734375 1.3125q1.234375 0 2.59375 -0.40625q1.359375 -0.40625 2.21875 -1.078125q0.25 -0.203125 0.4375 -0.203125q0.203125 0 0.359375 0.171875q0.171875 0.15625 0.171875 0.375q0 0.234375 -0.21875 0.4375q-0.625 0.65625 -2.25 1.234375q-1.609375 0.578125 -3.3125 0.578125q-2.84375 0 -4.75 -1.859375q-1.90625 -1.875 -1.90625 -4.53125q0 -2.40625 1.78125 -4.125q1.796875 -1.734375 4.421875 -1.734375q2.71875 0 4.46875 1.78125q1.765625 1.765625 1.734375 4.59375zm-1.125 -1.125q-0.328125 -1.828125 -1.734375 -2.96875q-1.40625 -1.15625 -3.34375 -1.15625q-1.9375 0 -3.328125 1.140625q-1.390625 1.125 -1.734375 2.984375l10.140625 0zm12.105713 6.5625l-1.875 0l-4.546875 -10.296875l-1.140625 0q-0.390625 0 -0.5625 -0.15625q-0.171875 -0.15625 -0.171875 -0.40625q0 -0.234375 0.171875 -0.390625q0.171875 -0.171875 0.5625 -0.171875l4.15625 0q0.390625 0 0.5625 0.171875q0.171875 0.15625 0.171875 0.40625q0 0.234375 -0.171875 0.390625q-0.171875 0.15625 -0.5625 0.15625l-1.828125 0l4.046875 9.1875l0.5 0l3.96875 -9.1875l-1.84375 0q-0.390625 0 -0.5625 -0.15625q-0.171875 -0.15625 -0.171875 -0.40625q0 -0.234375 0.171875 -0.390625q0.171875 -0.171875 0.5625 -0.171875l4.171875 0q0.40625 0 0.5625 0.171875q0.171875 0.15625 0.171875 0.40625q0 0.234375 -0.171875 0.390625q-0.15625 0.15625 -0.5625 0.15625l-1.125 0l-4.484375 10.296875zm21.012024 -5.4375l-11.28125 0q0.28125 2.140625 1.796875 3.453125q1.515625 1.3125 3.734375 1.3125q1.234375 0 2.59375 -0.40625q1.359375 -0.40625 2.21875 -1.078125q0.25 -0.203125 0.4375 -0.203125q0.203125 0 0.359375 0.171875q0.171875 0.15625 0.171875 0.375q0 0.234375 -0.21875 0.4375q-0.625 0.65625 -2.25 1.234375q-1.609375 0.578125 -3.3125 0.578125q-2.84375 0 -4.75 -1.859375q-1.90625 -1.875 -1.90625 -4.53125q0 -2.40625 1.78125 -4.125q1.796875 -1.734375 4.421875 -1.734375q2.71875 0 4.46875 1.78125q1.765625 1.765625 1.734375 4.59375zm-1.125 -1.125q-0.328125 -1.828125 -1.734375 -2.96875q-1.40625 -1.15625 -3.34375 -1.15625q-1.9375 0 -3.328125 1.140625q-1.390625 1.125 -1.734375 2.984375l10.140625 0zm11.683838 -9.9843445l0 15.4374695l4.359375 0q0.40625 0 0.578125 0.15625q0.171875 0.15625 0.171875 0.40625q0 0.234375 -0.171875 0.390625q-0.171875 0.15625 -0.578125 0.15625l-9.8125 0q-0.390625 0 -0.5625 -0.15625q-0.171875 -0.15625 -0.171875 -0.390625q0 -0.25 0.171875 -0.40625q0.171875 -0.15625 0.5625 -0.15625l4.34375 0l0 -14.3124695l-3.1875 0q-0.390625 0 -0.578125 -0.15625q-0.171875 -0.15625 -0.171875 -0.40625q0 -0.25 0.171875 -0.40625q0.171875 -0.15625 0.578125 -0.15625l4.296875 0zm21.090088 8.1249695l0 1.578125l-11.296875 0l0 -1.578125l11.296875 0zm8.074463 -3.0l6.015625 0q0.390625 0 0.5625 0.171875q0.171875 0.15625 0.171875 0.40625q0 0.234375 -0.171875 0.390625q-0.171875 0.15625 -0.5625 0.15625l-6.015625 0l0 7.375q0 0.953125 0.765625 1.609375q0.78125 0.640625 2.265625 0.640625q1.125 0 2.421875 -0.328125q1.3125 -0.34375 2.03125 -0.765625q0.265625 -0.171875 0.4375 -0.171875q0.21875 0 0.375 0.171875q0.15625 0.15625 0.15625 0.375q0 0.203125 -0.171875 0.375q-0.421875 0.4375 -2.0625 0.953125q-1.625 0.5 -3.109375 0.5q-1.9375 0 -3.09375 -0.90625q-1.140625 -0.921875 -1.140625 -2.453125l0 -7.375l-2.046875 0q-0.390625 0 -0.5625 -0.15625q-0.171875 -0.15625 -0.171875 -0.40625q0 -0.234375 0.171875 -0.390625q0.171875 -0.171875 0.5625 -0.171875l2.046875 0l0 -3.2655945q0 -0.390625 0.15625 -0.5625q0.15625 -0.171875 0.40625 -0.171875q0.25 0 0.40625 0.171875q0.15625 0.171875 0.15625 0.5625l0 3.2655945zm14.621399 -5.1249695l0 6.8124695q1.0625 -1.140625 2.03125 -1.609375q0.96875 -0.46875 2.171875 -0.46875q1.28125 0 2.1875 0.453125q0.90625 0.453125 1.5 1.40625q0.609375 0.9375 0.609375 1.984375l0 6.859375l1.25 0q0.40625 0 0.5625 0.15625q0.171875 0.15625 0.171875 0.40625q0 0.234375 -0.171875 0.390625q-0.15625 0.15625 -0.5625 0.15625l-3.609375 0q-0.40625 0 -0.578125 -0.15625q-0.171875 -0.15625 -0.171875 -0.390625q0 -0.25 0.171875 -0.40625q0.171875 -0.15625 0.578125 -0.15625l1.25 0l0 -6.78125q0 -1.203125 -0.875 -2.0q-0.859375 -0.8125 -2.40625 -0.8125q-1.203125 0 -2.0625 0.59375q-0.625 0.421875 -2.046875 1.984375l0 7.015625l1.25 0q0.40625 0 0.578125 0.15625q0.171875 0.15625 0.171875 0.40625q0 0.234375 -0.171875 0.390625q-0.171875 0.15625 -0.578125 0.15625l-3.609375 0q-0.390625 0 -0.5625 -0.15625q-0.171875 -0.15625 -0.171875 -0.390625q0 -0.25 0.171875 -0.40625q0.171875 -0.15625 0.5625 -0.15625l1.25 0l0 -14.3124695l-1.484375 0q-0.390625 0 -0.5625 -0.15625q-0.171875 -0.15625 -0.171875 -0.40625q0 -0.25 0.171875 -0.40625q0.171875 -0.15625 0.5625 -0.15625l2.59375 0zm18.324463 5.1249695l0 2.796875q2.15625 -1.953125 3.234375 -2.5q1.078125 -0.5625 1.984375 -0.5625q0.984375 0 1.828125 0.671875q0.859375 0.65625 0.859375 1.0q0 0.25 -0.171875 0.421875q-0.15625 0.15625 -0.40625 0.15625q-0.140625 0 -0.234375 -0.046875q-0.078125 -0.046875 -0.328125 -0.296875q-0.46875 -0.46875 -0.8125 -0.640625q-0.34375 -0.171875 -0.671875 -0.171875q-0.71875 0 -1.75 0.59375q-1.015625 0.578125 -3.53125 2.828125l0 6.0625l4.90625 0q0.40625 0 0.578125 0.15625q0.171875 0.15625 0.171875 0.40625q0 0.234375 -0.171875 0.390625q-0.171875 0.15625 -0.578125 0.15625l-8.6875 0q-0.40625 0 -0.578125 -0.140625q-0.171875 -0.15625 -0.171875 -0.40625q0 -0.21875 0.15625 -0.359375q0.171875 -0.15625 0.59375 -0.15625l2.671875 0l0 -9.234375l-2.046875 0q-0.390625 0 -0.5625 -0.15625q-0.171875 -0.15625 -0.171875 -0.40625q0 -0.234375 0.15625 -0.390625q0.171875 -0.171875 0.578125 -0.171875l3.15625 0zm23.308838 5.984375l-11.28125 0q0.28125 2.140625 1.796875 3.453125q1.515625 1.3125 3.734375 1.3125q1.234375 0 2.59375 -0.40625q1.359375 -0.40625 2.21875 -1.078125q0.25 -0.203125 0.4375 -0.203125q0.203125 0 0.359375 0.171875q0.171875 0.15625 0.171875 0.375q0 0.234375 -0.21875 0.4375q-0.625 0.65625 -2.25 1.234375q-1.609375 0.578125 -3.3125 0.578125q-2.84375 0 -4.75 -1.859375q-1.90625 -1.875 -1.90625 -4.53125q0 -2.40625 1.78125 -4.125q1.796875 -1.734375 4.421875 -1.734375q2.71875 0 4.46875 1.78125q1.765625 1.765625 1.734375 4.59375zm-1.125 -1.125q-0.328125 -1.828125 -1.734375 -2.96875q-1.40625 -1.15625 -3.34375 -1.15625q-1.9375 0 -3.328125 1.140625q-1.390625 1.125 -1.734375 2.984375l10.140625 0zm17.121338 1.125l-11.28125 0q0.28125 2.140625 1.796875 3.453125q1.515625 1.3125 3.734375 1.3125q1.234375 0 2.59375 -0.40625q1.359375 -0.40625 2.21875 -1.078125q0.25 -0.203125 0.4375 -0.203125q0.203125 0 0.359375 0.171875q0.171875 0.15625 0.171875 0.375q0 0.234375 -0.21875 0.4375q-0.625 0.65625 -2.25 1.234375q-1.609375 0.578125 -3.3125 0.578125q-2.84375 0 -4.75 -1.859375q-1.90625 -1.875 -1.90625 -4.53125q0 -2.40625 1.78125 -4.125q1.796875 -1.734375 4.421875 -1.734375q2.71875 0 4.46875 1.78125q1.765625 1.765625 1.734375 4.59375zm-1.125 -1.125q-0.328125 -1.828125 -1.734375 -2.96875q-1.40625 -1.15625 -3.34375 -1.15625q-1.9375 0 -3.328125 1.140625q-1.390625 1.125 -1.734375 2.984375l10.140625 0zm17.933899 -1.125l-11.96875 6.671875q-0.28125 0.15625 -0.4375 0.15625q-0.21875 0 -0.390625 -0.15625q-0.15625 -0.171875 -0.15625 -0.390625q0 -0.328125 0.453125 -0.578125l10.25 -5.703125l-10.25 -5.6875q-0.4375 -0.25 -0.4375 -0.59375q0 -0.21875 0.15625 -0.375q0.171875 -0.171875 0.390625 -0.171875q0.140625 0 0.4375 0.15625l11.953125 6.671875z" fill-rule="nonzero"></path></g></svg>

