<?xml version="1.0" standalone="yes"?>

<svg version="1.1" viewBox="0.0 0.0 957.0 634.0" fill="none" stroke="none" stroke-linecap="square" stroke-miterlimit="10" xmlns="http://www.w3.org/2000/svg" xmlns:xlink="http://www.w3.org/1999/xlink"><clipPath id="p.0"><path d="m0 0l957.0 0l0 634.0l-957.0 0l0 -634.0z" clip-rule="nonzero"></path></clipPath><g clip-path="url(#p.0)"><path fill="#000000" fill-opacity="0.0" d="m0 0l957.56696 0l0 634.89764l-957.56696 0z" fill-rule="nonzero"></path><path fill="#d9d9d9" d="m15.139108 17.031496l928.22046 0l0 597.98425l-928.22046 0z" fill-rule="nonzero"></path><path stroke="#000000" stroke-width="2.0" stroke-linejoin="round" stroke-linecap="butt" d="m15.139108 17.031496l928.22046 0l0 597.98425l-928.22046 0z" fill-rule="nonzero"></path><path fill="#cfe2f3" d="m41.63517 98.4042l356.7244 0l0 492.97635l-356.7244 0z" fill-rule="nonzero"></path><path stroke="#000000" stroke-width="2.0" stroke-linejoin="round" stroke-linecap="butt" d="m41.63517 98.4042l356.7244 0l0 492.97635l-356.7244 0z" fill-rule="nonzero"></path><path fill="#000000" fill-opacity="0.0" d="m131.99738 34.81365l176.0 0l0 63.59055l-176.0 0z" fill-rule="nonzero"></path><path fill="#000000" d="m176.61847 81.00893l0 -28.640629l19.3125 0l0 3.390625l-15.515625 0l0 8.859379l13.4375 0l0 3.375l-13.4375 0l0 13.015625l-3.796875 0zm22.480469 -10.375q0 -5.765625 3.203125 -8.531254q2.671875 -2.3125 6.53125 -2.3125q4.265625 0 6.984375 2.8125q2.71875 2.7968788 2.71875 7.734379q0 4.015625 -1.203125 6.3125q-1.203125 2.28125 -3.5 3.5625q-2.296875 1.265625 -5.0 1.265625q-4.359375 0 -7.046875 -2.796875q-2.6875 -2.796875 -2.6875 -8.046875zm3.609375 0q0 3.984375 1.734375 5.96875q1.75 1.984375 4.390625 1.984375q2.609375 0 4.34375 -1.984375q1.75 -2.0 1.75 -6.078125q0 -3.859375 -1.75 -5.828125q-1.75 -1.9843788 -4.34375 -1.9843788q-2.640625 0 -4.390625 1.9687538q-1.734375 1.96875 -1.734375 5.953125zm19.902344 10.375l0 -20.750004l3.171875 0l0 3.15625q1.203125 -2.21875 2.234375 -2.921875q1.03125 -0.703125 2.25 -0.703125q1.78125 0 3.625 1.140625l-1.21875 3.2656288q-1.28125 -0.7656288 -2.578125 -0.7656288q-1.15625 0 -2.078125 0.7031288q-0.90625 0.6875 -1.296875 1.90625q-0.59375 1.875 -0.59375 4.109375l0 10.859375l-3.515625 0zm13.3671875 0l0 -20.750004l3.140625 0l0 2.921875q0.984375 -1.53125 2.59375 -2.453125q1.625 -0.9375 3.703125 -0.9375q2.296875 0 3.765625 0.96875q1.484375 0.953125 2.09375 2.671875q2.453125 -3.640625 6.40625 -3.640625q3.078125 0 4.734375 1.71875q1.671875 1.703125 1.671875 5.265629l0 14.234375l-3.5 0l0 -13.0625q0 -2.109375 -0.34375 -3.03125q-0.34375 -0.9375038 -1.25 -1.5000038q-0.890625 -0.578125 -2.09375 -0.578125q-2.1875 0 -3.640625 1.4687538q-1.4375 1.453125 -1.4375 4.65625l0 12.046875l-3.515625 0l0 -13.484375q0 -2.34375 -0.859375 -3.515625q-0.859375 -1.1718788 -2.8125 -1.1718788q-1.484375 0 -2.75 0.78125q-1.265625 0.7812538 -1.828125 2.2968788q-0.5625 1.5 -0.5625 4.328125l0 10.765625l-3.515625 0z" fill-rule="nonzero"></path><path fill="#ffffff" d="m63.39895 156.12073l313.19684 0l0 63.59056l-313.19684 0z" fill-rule="nonzero"></path><path stroke="#000000" stroke-width="2.0" stroke-linejoin="round" stroke-linecap="butt" d="m63.39895 156.12073l313.19684 0l0 63.59056l-313.19684 0z" fill-rule="nonzero"></path><path fill="#ffffff" d="m63.39895 313.0971l313.19684 0l0 63.590546l-313.19684 0z" fill-rule="nonzero"></path><path stroke="#000000" stroke-width="2.0" stroke-linejoin="round" stroke-linecap="butt" d="m63.39895 313.0971l313.19684 0l0 63.590546l-313.19684 0z" fill-rule="nonzero"></path><path fill="#ffffff" d="m63.39895 470.0735l313.19684 0l0 63.590576l-313.19684 0z" fill-rule="nonzero"></path><path stroke="#000000" stroke-width="2.0" stroke-linejoin="round" stroke-linecap="butt" d="m63.39895 470.0735l313.19684 0l0 63.590576l-313.19684 0z" fill-rule="nonzero"></path><path fill="#cfe2f3" d="m558.1732 98.4042l356.72443 0l0 492.97635l-356.72443 0z" fill-rule="nonzero"></path><path stroke="#000000" stroke-width="2.0" stroke-linejoin="round" stroke-linecap="butt" d="m558.1732 98.4042l356.72443 0l0 492.97635l-356.72443 0z" fill-rule="nonzero"></path><path fill="#000000" fill-opacity="0.0" d="m648.53546 34.81365l175.99994 0l0 63.59055l-175.99994 0z" fill-rule="nonzero"></path><path fill="#000000" d="m679.4261 71.8058l3.578125 -0.3125q0.25 2.15625 1.171875 3.53125q0.9375 1.375 2.890625 2.234375q1.953125 0.84375 4.390625 0.84375q2.171875 0 3.828125 -0.640625q1.65625 -0.65625 2.46875 -1.78125q0.8125 -1.125 0.8125 -2.453125q0 -1.34375 -0.78125 -2.34375q-0.78125 -1.015625 -2.578125 -1.6875q-1.15625 -0.453125 -5.109375 -1.390625q-3.9375 -0.953125 -5.515625 -1.796875q-2.046875 -1.078125 -3.0625 -2.6718788q-1.0 -1.59375 -1.0 -3.5625q0 -2.171875 1.234375 -4.046875q1.234375 -1.890625 3.59375 -2.859375q2.359375 -0.984375 5.25 -0.984375q3.1875 0 5.609375 1.03125q2.4375 1.015625 3.75 3.015625q1.3125 1.984375 1.40625 4.515625l-3.640625 0.265625q-0.28125 -2.71875 -1.984375 -4.09375q-1.6875 -1.390625 -4.984375 -1.390625q-3.4375 0 -5.015625 1.265625q-1.5625 1.25 -1.5625 3.03125q0 1.546875 1.109375 2.53125q1.09375 1.0 5.703125 2.0468788q4.625 1.046875 6.34375 1.828125q2.5 1.15625 3.6875 2.921875q1.203125 1.765625 1.203125 4.0625q0 2.296875 -1.3125 4.3125q-1.3125 2.015625 -3.765625 3.140625q-2.4375 1.125 -5.515625 1.125q-3.875 0 -6.515625 -1.125q-2.625 -1.140625 -4.125 -3.40625q-1.484375 -2.28125 -1.5625 -5.15625zm41.726562 2.515625l3.625 0.453125q-0.859375 3.1875 -3.1875 4.953125q-2.3125 1.75 -5.9375 1.75q-4.546875 0 -7.21875 -2.796875q-2.65625 -2.8125 -2.65625 -7.875q0 -5.234375 2.6875 -8.125004q2.703125 -2.890625 7.0 -2.890625q4.15625 0 6.796875 2.84375q2.640625 2.8281288 2.640625 7.968754q0 0.3125 -0.03125 0.9375l-15.46875 0q0.203125 3.40625 1.9375 5.234375q1.734375 1.8125 4.34375 1.8125q1.921875 0 3.28125 -1.015625q1.375 -1.015625 2.1875 -3.25zm-11.546875 -5.671875l11.578125 0q-0.234375 -2.625 -1.328125 -3.9375q-1.671875 -2.0312538 -4.359375 -2.0312538q-2.421875 0 -4.078125 1.6250038q-1.640625 1.625 -1.8125 4.34375zm19.542969 12.359375l0 -20.750004l3.171875 0l0 3.15625q1.203125 -2.21875 2.234375 -2.921875q1.03125 -0.703125 2.25 -0.703125q1.78125 0 3.625 1.140625l-1.21875 3.2656288q-1.28125 -0.7656288 -2.578125 -0.7656288q-1.15625 0 -2.078125 0.7031288q-0.90625 0.6875 -1.296875 1.90625q-0.59375 1.875 -0.59375 4.109375l0 10.859375l-3.515625 0zm19.132812 0l-7.890625 -20.750004l3.703125 0l4.453125 12.421879q0.71875 2.015625 1.328125 4.1875q0.46875 -1.640625 1.3125 -3.953125l4.609375 -12.656254l3.609375 0l-7.84375 20.750004l-3.28125 0zm28.4375 -6.6875l3.625 0.453125q-0.859375 3.1875 -3.1875 4.953125q-2.3125 1.75 -5.9375 1.75q-4.546875 0 -7.21875 -2.796875q-2.65625 -2.8125 -2.65625 -7.875q0 -5.234375 2.6875 -8.125004q2.703125 -2.890625 7.0 -2.890625q4.15625 0 6.796875 2.84375q2.640625 2.8281288 2.640625 7.968754q0 0.3125 -0.03125 0.9375l-15.46875 0q0.203125 3.40625 1.9375 5.234375q1.734375 1.8125 4.34375 1.8125q1.921875 0 3.28125 -1.015625q1.375 -1.015625 2.1875 -3.25zm-11.546875 -5.671875l11.578125 0q-0.234375 -2.625 -1.328125 -3.9375q-1.671875 -2.0312538 -4.359375 -2.0312538q-2.421875 0 -4.078125 1.6250038q-1.640625 1.625 -1.8125 4.34375zm19.542969 12.359375l0 -20.750004l3.171875 0l0 3.15625q1.203125 -2.21875 2.234375 -2.921875q1.03125 -0.703125 2.25 -0.703125q1.78125 0 3.625 1.140625l-1.21875 3.2656288q-1.28125 -0.7656288 -2.578125 -0.7656288q-1.15625 0 -2.078125 0.7031288q-0.90625 0.6875 -1.296875 1.90625q-0.59375 1.875 -0.59375 4.109375l0 10.859375l-3.515625 0z" fill-rule="nonzero"></path><path fill="#ffe599" d="m623.46454 144.29396l226.14178 0l0 401.1969l-226.14178 0z" fill-rule="nonzero"></path><path stroke="#000000" stroke-width="2.0" stroke-linejoin="round" stroke-linecap="butt" d="m623.46454 144.29396l226.14178 0l0 401.1969l-226.14178 0z" fill-rule="nonzero"></path><path fill="#000000" fill-opacity="0.0" d="m612.5827 92.53018l247.90552 0l0 63.59056l-247.90552 0z" fill-rule="nonzero"></path><path fill="#000000" d="m648.2464 127.34983l2.140625 -0.1875q0.15625 1.2812576 0.703125 2.1093826q0.5625 0.828125 1.734375 1.34375q1.171875 0.5 2.640625 0.5q1.296875 0 2.296875 -0.375q1.0 -0.390625 1.484375 -1.0625q0.484375 -0.6875 0.484375 -1.484375q0 -0.7968826 -0.46875 -1.4062576q-0.46875 -0.609375 -1.546875 -1.015625q-0.6875 -0.265625 -3.0625 -0.828125q-2.359375 -0.578125 -3.3125 -1.078125q-1.234375 -0.640625 -1.84375 -1.59375q-0.59375 -0.96875 -0.59375 -2.140625q0 -1.3125 0.734375 -2.4375q0.75 -1.125 2.15625 -1.703125q1.421875 -0.59375 3.15625 -0.59375q1.90625 0 3.359375 0.609375q1.46875 0.609375 2.25 1.8125q0.796875 1.1875 0.84375 2.703125l-2.171875 0.171875q-0.171875 -1.640625 -1.1875 -2.46875q-1.015625 -0.828125 -3.0 -0.828125q-2.0625 0 -3.015625 0.765625q-0.9375 0.75 -0.9375 1.8125q0 0.921875 0.671875 1.515625q0.65625 0.609375 3.421875 1.234375q2.78125 0.625 3.8125 1.09375q1.5 0.6875 2.203125 1.75q0.71875 1.0625 0.71875 2.4375076q0 1.375 -0.78125 2.59375q-0.78125 1.203125 -2.25 1.890625q-1.46875 0.671875 -3.3125 0.671875q-2.328125 0 -3.90625 -0.671875q-1.578125 -0.6875 -2.484375 -2.046875q-0.890625 -1.375 -0.9375 -3.0937576zm25.039062 1.5000076l2.171875 0.28125q-0.515625 1.90625 -1.90625 2.96875q-1.390625 1.046875 -3.5625 1.046875q-2.734375 0 -4.34375 -1.671875q-1.59375 -1.6875 -1.59375 -4.7343826q0 -3.140625 1.609375 -4.875q1.625 -1.734375 4.203125 -1.734375q2.5 0 4.078125 1.703125q1.59375 1.703125 1.59375 4.78125q0 0.1875 -0.015625 0.5625l-9.28125 0q0.109375 2.0468826 1.15625 3.1406326q1.046875 1.09375 2.609375 1.09375q1.15625 0 1.96875 -0.609375q0.828125 -0.609375 1.3125 -1.953125zm-6.9375 -3.4062576l6.953125 0q-0.140625 -1.5625 -0.796875 -2.359375q-1.0 -1.21875 -2.609375 -1.21875q-1.453125 0 -2.453125 0.984375q-0.984375 0.96875 -1.09375 2.59375zm11.738281 7.4218826l0 -12.453133l1.890625 0l0 1.890625q0.734375 -1.328125 1.34375 -1.75q0.625 -0.421875 1.359375 -0.421875q1.0625 0 2.171875 0.6875l-0.734375 1.953125q-0.765625 -0.453125 -1.546875 -0.453125q-0.6875 0 -1.25 0.421875q-0.546875 0.40625 -0.78125 1.140625q-0.34375 1.125 -0.34375 2.46875l0 6.5156326l-2.109375 0zm11.4765625 0l-4.734375 -12.453133l2.21875 0l2.671875 7.453125q0.4375 1.2187576 0.796875 2.5156326q0.28125 -0.984375 0.78125 -2.375l2.765625 -7.5937576l2.171875 0l-4.703125 12.453133l-1.96875 0zm17.0625 -4.015625l2.171875 0.28125q-0.515625 1.90625 -1.90625 2.96875q-1.390625 1.046875 -3.5625 1.046875q-2.734375 0 -4.34375 -1.671875q-1.59375 -1.6875 -1.59375 -4.7343826q0 -3.140625 1.609375 -4.875q1.625 -1.734375 4.203125 -1.734375q2.5 0 4.078125 1.703125q1.59375 1.703125 1.59375 4.78125q0 0.1875 -0.015625 0.5625l-9.28125 0q0.109375 2.0468826 1.15625 3.1406326q1.046875 1.09375 2.609375 1.09375q1.15625 0 1.96875 -0.609375q0.828125 -0.609375 1.3125 -1.953125zm-6.9375 -3.4062576l6.953125 0q-0.140625 -1.5625 -0.796875 -2.359375q-1.0 -1.21875 -2.609375 -1.21875q-1.453125 0 -2.453125 0.984375q-0.984375 0.96875 -1.09375 2.59375zm11.738281 7.4218826l0 -12.453133l1.890625 0l0 1.890625q0.734375 -1.328125 1.34375 -1.75q0.625 -0.421875 1.359375 -0.421875q1.0625 0 2.171875 0.6875l-0.734375 1.953125q-0.765625 -0.453125 -1.546875 -0.453125q-0.6875 0 -1.25 0.421875q-0.546875 0.40625 -0.78125 1.140625q-0.34375 1.125 -0.34375 2.46875l0 6.5156326l-2.109375 0zm7.1953125 -5.1562576l0 -2.125l6.484375 0l0 2.125l-6.484375 0zm7.9609375 1.4375076l2.09375 -0.328125q0.171875 1.25 0.96875 1.921875q0.8125 0.671875 2.25 0.671875q1.453125 0 2.15625 -0.59375q0.703125 -0.59375 0.703125 -1.390625q0 -0.71875 -0.625 -1.125q-0.421875 -0.28125 -2.15625 -0.7187576q-2.3125 -0.578125 -3.21875 -1.0q-0.890625 -0.4375 -1.359375 -1.1875q-0.453125 -0.765625 -0.453125 -1.671875q0 -0.828125 0.375 -1.53125q0.390625 -0.71875 1.046875 -1.1875q0.484375 -0.359375 1.328125 -0.609375q0.859375 -0.265625 1.828125 -0.265625q1.46875 0 2.578125 0.421875q1.109375 0.421875 1.625 1.15625q0.53125 0.71875 0.734375 1.921875l-2.0625 0.28125q-0.140625 -0.96875 -0.8125 -1.5q-0.671875 -0.546875 -1.90625 -0.546875q-1.453125 0 -2.078125 0.484375q-0.625 0.484375 -0.625 1.125q0 0.40625 0.265625 0.734375q0.25 0.34375 0.8125 0.5625q0.3125 0.125 1.859375 0.546875q2.234375 0.59375 3.109375 0.984375q0.890625 0.375 1.390625 1.109375q0.515625 0.7187576 0.515625 1.7968826q0 1.046875 -0.625 1.984375q-0.609375 0.9375 -1.765625 1.453125q-1.15625 0.5 -2.625 0.5q-2.421875 0 -3.703125 -1.0q-1.265625 -1.015625 -1.625 -3.0zm12.859375 -11.031258l0 -2.4375l2.109375 0l0 2.4375l-2.109375 0zm0 14.750008l0 -12.453133l2.109375 0l0 12.453133l-2.109375 0zm13.394531 0l0 -1.578125q-1.1875 1.859375 -3.484375 1.859375q-1.484375 0 -2.734375 -0.8125q-1.25 -0.828125 -1.9375 -2.296875q-0.671875 -1.46875 -0.671875 -3.3906326q0 -1.859375 0.609375 -3.375q0.625 -1.515625 1.859375 -2.328125q1.25 -0.8125 2.78125 -0.8125q1.125 0 2.0 0.484375q0.890625 0.46875 1.4375 1.234375l0 -6.171875l2.09375 0l0 17.187508l-1.953125 0zm-6.671875 -6.2187576q0 2.3906326 1.0 3.5781326q1.015625 1.1875 2.390625 1.1875q1.390625 0 2.34375 -1.125q0.96875 -1.140625 0.96875 -3.4531326q0 -2.5625 -0.984375 -3.75q-0.984375 -1.203125 -2.421875 -1.203125q-1.40625 0 -2.359375 1.15625q-0.9375 1.140625 -0.9375 3.609375zm20.472656 2.2031326l2.171875 0.28125q-0.515625 1.90625 -1.90625 2.96875q-1.390625 1.046875 -3.5625 1.046875q-2.734375 0 -4.34375 -1.671875q-1.59375 -1.6875 -1.59375 -4.7343826q0 -3.140625 1.609375 -4.875q1.625 -1.734375 4.203125 -1.734375q2.5 0 4.078125 1.703125q1.59375 1.703125 1.59375 4.78125q0 0.1875 -0.015625 0.5625l-9.28125 0q0.109375 2.0468826 1.15625 3.1406326q1.046875 1.09375 2.609375 1.09375q1.15625 0 1.96875 -0.609375q0.828125 -0.609375 1.3125 -1.953125zm-6.9375 -3.4062576l6.953125 0q-0.140625 -1.5625 -0.796875 -2.359375q-1.0 -1.21875 -2.609375 -1.21875q-1.453125 0 -2.453125 0.984375q-0.984375 0.96875 -1.09375 2.59375zm18.375 7.4218826l0 -17.187508l2.109375 0l0 17.187508l-2.109375 0zm4.5976562 -6.2187576q0 -3.46875 1.921875 -5.125q1.609375 -1.390625 3.921875 -1.390625q2.5625 0 4.1875 1.6875q1.625 1.6875 1.625 4.640625q0 2.4062576 -0.71875 3.7812576q-0.71875 1.375 -2.09375 2.140625q-1.375 0.765625 -3.0 0.765625q-2.625 0 -4.234375 -1.671875q-1.609375 -1.6875 -1.609375 -4.8281326zm2.171875 0q0 2.3906326 1.03125 3.5781326q1.046875 1.1875 2.640625 1.1875q1.5625 0 2.609375 -1.1875q1.046875 -1.203125 1.046875 -3.6562576q0 -2.3125 -1.0625 -3.5q-1.046875 -1.1875 -2.59375 -1.1875q-1.59375 0 -2.640625 1.1875q-1.03125 1.1875 -1.03125 3.578125zm11.582031 7.2500076l2.046875 0.3125q0.125 0.9375 0.71875 1.375q0.78125 0.59375 2.140625 0.59375q1.46875 0 2.265625 -0.59375q0.796875 -0.578125 1.078125 -1.640625q0.15625 -0.640625 0.140625 -2.703125q-1.375 1.625 -3.4375 1.625q-2.5625 0 -3.96875 -1.84375q-1.40625 -1.859375 -1.40625 -4.4531326q0 -1.78125 0.640625 -3.28125q0.640625 -1.515625 1.859375 -2.328125q1.234375 -0.828125 2.890625 -0.828125q2.203125 0 3.625 1.78125l0 -1.5l1.953125 0l0 10.765633q0 2.90625 -0.59375 4.109375q-0.59375 1.21875 -1.875 1.921875q-1.28125 0.703125 -3.15625 0.703125q-2.234375 0 -3.609375 -1.0q-1.359375 -1.0 -1.3125 -3.015625zm1.734375 -7.4843826q0 2.4531326 0.96875 3.5781326q0.984375 1.125 2.453125 1.125q1.453125 0 2.4375 -1.109375q0.984375 -1.125 0.984375 -3.5156326q0 -2.28125 -1.015625 -3.4375q-1.015625 -1.171875 -2.453125 -1.171875q-1.40625 0 -2.390625 1.140625q-0.984375 1.140625 -0.984375 3.390625zm12.003906 -8.296875l0 -2.4375l2.109375 0l0 2.4375l-2.109375 0zm0 14.750008l0 -12.453133l2.109375 0l0 12.453133l-2.109375 0zm13.441406 -4.5625l2.078125 0.265625q-0.34375 2.15625 -1.75 3.375q-1.390625 1.203125 -3.4375 1.203125q-2.546875 0 -4.109375 -1.671875q-1.546875 -1.671875 -1.546875 -4.7812576q0 -2.015625 0.671875 -3.53125q0.671875 -1.515625 2.03125 -2.265625q1.359375 -0.765625 2.96875 -0.765625q2.03125 0 3.3125 1.03125q1.296875 1.03125 1.65625 2.90625l-2.046875 0.328125q-0.296875 -1.265625 -1.046875 -1.890625q-0.734375 -0.640625 -1.796875 -0.640625q-1.59375 0 -2.59375 1.15625q-0.984375 1.140625 -0.984375 3.609375q0 2.5000076 0.953125 3.6406326q0.96875 1.140625 2.515625 1.140625q1.234375 0 2.0625 -0.765625q0.84375 -0.765625 1.0625 -2.34375z" fill-rule="nonzero"></path><path fill="#000000" fill-opacity="0.0" d="m376.5958 187.91602l242.20474 -0.5669403" fill-rule="nonzero"></path><path stroke="#000000" stroke-width="3.0" stroke-linejoin="round" stroke-linecap="butt" d="m376.5958 187.91602l224.20474 -0.52479553" fill-rule="evenodd"></path><path fill="#000000" stroke="#000000" stroke-width="3.0" stroke-linecap="butt" d="m600.8122 192.3464l13.602661 -4.9870605l-13.6258545 -4.9233093z" fill-rule="evenodd"></path><path fill="#000000" fill-opacity="0.0" d="m378.9265 345.17584l242.20471 -0.56692505" fill-rule="nonzero"></path><path stroke="#000000" stroke-width="3.0" stroke-linejoin="round" stroke-linecap="butt" d="m378.9265 345.17584l224.20477 -0.5248108" fill-rule="evenodd"></path><path fill="#000000" stroke="#000000" stroke-width="3.0" stroke-linecap="butt" d="m603.1429 349.60623l13.602661 -4.98703l-13.6258545 -4.92334z" fill-rule="evenodd"></path><path fill="#000000" fill-opacity="0.0" d="m376.59448 502.4357l242.20471 -0.56692505" fill-rule="nonzero"></path><path stroke="#000000" stroke-width="3.0" stroke-linejoin="round" stroke-linecap="butt" d="m376.59448 502.4357l224.20477 -0.5248108" fill-rule="evenodd"></path><path fill="#000000" stroke="#000000" stroke-width="3.0" stroke-linecap="butt" d="m600.81085 506.8661l13.602661 -4.9870605l-13.6258545 -4.9233093z" fill-rule="evenodd"></path><path fill="#000000" fill-opacity="0.0" d="m511.04462 70.968506l0 490.11023l-63.590546 0l0 -490.11023z" fill-rule="nonzero"></path><path fill="#000000" d="m474.05246 217.77167l0.3125 3.578125q-2.15625 0.25 -3.53125 1.171875q-1.375 0.9375 -2.234375 2.890625q-0.84375 1.953125 -0.84375 4.390625q0 2.171875 0.640625 3.828125q0.65625 1.65625 1.78125 2.46875q1.125 0.8125 2.453125 0.8125q1.34375 0 2.34375 -0.78125q1.015625 -0.78125 1.6875 -2.578125q0.453125 -1.15625 1.390625 -5.109375q0.953125 -3.9375 1.796875 -5.515625q1.078125 -2.046875 2.671875 -3.0625q1.59375 -1.0 3.5625 -1.0q2.171875 0 4.046875 1.234375q1.890625 1.234375 2.859375 3.59375q0.984375 2.359375 0.984375 5.25q0 3.1875 -1.03125 5.609375q-1.015625 2.4375 -3.015625 3.75q-1.984375 1.3125 -4.515625 1.40625l-0.265625 -3.640625q2.71875 -0.28125 4.09375 -1.984375q1.390625 -1.6875 1.390625 -4.984375q0 -3.4375 -1.265625 -5.015625q-1.25 -1.5625 -3.03125 -1.5625q-1.546875 0 -2.53125 1.109375q-1.0 1.09375 -2.046875 5.703125q-1.046875 4.625 -1.828125 6.34375q-1.15625 2.5 -2.921875 3.6875q-1.765625 1.203125 -4.0625 1.203125q-2.296875 0 -4.3125 -1.3125q-2.015625 -1.3125 -3.140625 -3.765625q-1.125 -2.4375 -1.125 -5.515625q0 -3.875 1.125 -6.515625q1.140625 -2.625 3.40625 -4.125q2.28125 -1.484375 5.15625 -1.5625zm-9.203125 41.117188l3.046875 0q-3.515625 -2.421875 -3.515625 -6.578125q0 -1.84375 0.703125 -3.4375q0.703125 -1.59375 1.765625 -2.359375q1.0625 -0.765625 2.609375 -1.078125q1.03125 -0.21875 3.28125 -0.21875l12.859375 0l0 3.515625l-11.515625 0q-2.75 0 -3.703125 0.21875q-1.390625 0.328125 -2.1875 1.390625q-0.78125 1.078125 -0.78125 2.671875q0 1.578125 0.8125 2.953125q0.8125 1.390625 2.203125 1.96875q1.390625 0.578125 4.046875 0.578125l11.125 0l0 3.515625l-20.75 0l0 -3.140625zm0 11.886719l0 -3.25l28.640625 0l0 3.515625l-10.21875 0q2.796875 2.21875 2.796875 5.671875q0 1.921875 -0.78125 3.625q-0.765625 1.71875 -2.171875 2.8125q-1.390625 1.109375 -3.359375 1.734375q-1.96875 0.625 -4.21875 0.625q-5.328125 0 -8.25 -2.640625q-2.90625 -2.640625 -2.90625 -6.328125q0 -3.671875 3.0625 -5.765625l-2.59375 0zm10.53125 -0.03125q-3.734375 0 -5.390625 1.015625q-2.71875 1.65625 -2.71875 4.484375q0 2.3125 2.0 3.984375q2.0 1.6875 5.96875 1.6875q4.0625 0 6.0 -1.609375q1.9375 -1.609375 1.9375 -3.90625q0 -2.296875 -2.015625 -3.984375q-2.0 -1.671875 -5.78125 -1.671875zm-10.53125 19.042969l20.75 0l0 3.140625l-2.921875 0q1.53125 0.984375 2.453125 2.59375q0.9375 1.625 0.9375 3.703125q0 2.296875 -0.96875 3.765625q-0.953125 1.484375 -2.671875 2.09375q3.640625 2.453125 3.640625 6.40625q0 3.078125 -1.71875 4.734375q-1.703125 1.671875 -5.265625 1.671875l-14.234375 0l0 -3.5l13.0625 0q2.109375 0 3.03125 -0.34375q0.9375 -0.34375 1.5 -1.25q0.578125 -0.890625 0.578125 -2.09375q0 -2.1875 -1.46875 -3.640625q-1.453125 -1.4375 -4.65625 -1.4375l-12.046875 0l0 -3.515625l13.484375 0q2.34375 0 3.515625 -0.859375q1.171875 -0.859375 1.171875 -2.8125q0 -1.484375 -0.78125 -2.75q-0.78125 -1.265625 -2.296875 -1.828125q-1.5 -0.5625 -4.328125 -0.5625l-10.765625 0l0 -3.515625zm24.59375 33.335938l4.046875 0l0 3.515625l-4.046875 0l0 -3.515625zm-24.59375 0l20.75 0l0 3.515625l-20.75 0l0 -3.515625zm3.140625 16.542969l-3.09375 0.515625q-0.328125 -1.484375 -0.328125 -2.65625q0 -1.921875 0.609375 -2.984375q0.609375 -1.046875 1.59375 -1.484375q0.984375 -0.421875 4.15625 -0.421875l11.9375 0l0 -2.578125l2.734375 0l0 2.578125l5.125 0l2.109375 3.5l-7.234375 0l0 3.53125l-2.734375 0l0 -3.53125l-12.140625 0q-1.5 0 -1.9375 0.1875q-0.421875 0.1875 -0.671875 0.59375q-0.25 0.421875 -0.25 1.203125q0 0.59375 0.125 1.546875zm0 22.226562l-3.09375 0.515625q-0.328125 -1.484375 -0.328125 -2.65625q0 -1.921875 0.609375 -2.984375q0.609375 -1.046875 1.59375 -1.484375q0.984375 -0.421875 4.15625 -0.421875l11.9375 0l0 -2.578125l2.734375 0l0 2.578125l5.125 0l2.109375 3.5l-7.234375 0l0 3.53125l-2.734375 0l0 -3.53125l-12.140625 0q-1.5 0 -1.9375 0.1875q-0.421875 0.1875 -0.671875 0.59375q-0.25 0.421875 -0.25 1.203125q0 0.59375 0.125 1.546875zm21.453125 3.4570312l4.046875 0l0 3.515625l-4.046875 0l0 -3.515625zm-24.59375 0l20.75 0l0 3.515625l-20.75 0l0 -3.515625zm10.375 7.5585938q5.765625 0 8.53125 3.203125q2.3125 2.671875 2.3125 6.53125q0 4.265625 -2.8125 6.984375q-2.796875 2.71875 -7.734375 2.71875q-4.015625 0 -6.3125 -1.203125q-2.28125 -1.203125 -3.5625 -3.5q-1.265625 -2.296875 -1.265625 -5.0q0 -4.359375 2.796875 -7.046875q2.796875 -2.6875 8.046875 -2.6875zm0 3.609375q-3.984375 0 -5.96875 1.734375q-1.984375 1.75 -1.984375 4.390625q0 2.609375 1.984375 4.34375q2.0 1.75 6.078125 1.75q3.859375 0 5.828125 -1.75q1.984375 -1.75 1.984375 -4.34375q0 -2.640625 -1.96875 -4.390625q-1.96875 -1.734375 -5.953125 -1.734375zm-10.375 19.949219l20.75 0l0 3.15625l-2.953125 0q3.421875 2.296875 3.421875 6.609375q0 1.875 -0.6875 3.4375q-0.671875 1.578125 -1.765625 2.359375q-1.09375 0.78125 -2.59375 1.09375q-0.96875 0.203125 -3.421875 0.203125l-12.75 0l0 -3.515625l12.625 0q2.140625 0 3.203125 -0.421875q1.0625 -0.40625 1.703125 -1.453125q0.640625 -1.046875 0.640625 -2.453125q0 -2.234375 -1.4375 -3.875q-1.421875 -1.625 -5.40625 -1.625l-11.328125 0l0 -3.515625z" fill-rule="nonzero"></path></g></svg>

