<?xml version="1.0" standalone="yes"?>

<svg version="1.1" viewBox="0.0 0.0 957.0 634.0" fill="none" stroke="none" stroke-linecap="square" stroke-miterlimit="10" xmlns="http://www.w3.org/2000/svg" xmlns:xlink="http://www.w3.org/1999/xlink"><clipPath id="p.0"><path d="m0 0l957.0 0l0 634.0l-957.0 0l0 -634.0z" clip-rule="nonzero"></path></clipPath><g clip-path="url(#p.0)"><path fill="#000000" fill-opacity="0.0" d="m0 0l957.56696 0l0 634.89764l-957.56696 0z" fill-rule="nonzero"></path><path fill="#d9d9d9" d="m15.139108 17.031496l928.22046 0l0 597.98425l-928.22046 0z" fill-rule="nonzero"></path><path stroke="#000000" stroke-width="2.0" stroke-linejoin="round" stroke-linecap="butt" d="m15.139108 17.031496l928.22046 0l0 597.98425l-928.22046 0z" fill-rule="nonzero"></path><path fill="#cfe2f3" d="m41.63517 98.4042l356.7244 0l0 492.97635l-356.7244 0z" fill-rule="nonzero"></path><path stroke="#000000" stroke-width="2.0" stroke-linejoin="round" stroke-linecap="butt" d="m41.63517 98.4042l356.7244 0l0 492.97635l-356.7244 0z" fill-rule="nonzero"></path><path fill="#000000" fill-opacity="0.0" d="m131.99738 34.81365l176.0 0l0 63.59055l-176.0 0z" fill-rule="nonzero"></path><path fill="#000000" d="m176.61847 81.00893l0 -28.640629l19.3125 0l0 3.390625l-15.515625 0l0 8.859379l13.4375 0l0 3.375l-13.4375 0l0 13.015625l-3.796875 0zm22.480469 -10.375q0 -5.765625 3.203125 -8.531254q2.671875 -2.3125 6.53125 -2.3125q4.265625 0 6.984375 2.8125q2.71875 2.7968788 2.71875 7.734379q0 4.015625 -1.203125 6.3125q-1.203125 2.28125 -3.5 3.5625q-2.296875 1.265625 -5.0 1.265625q-4.359375 0 -7.046875 -2.796875q-2.6875 -2.796875 -2.6875 -8.046875zm3.609375 0q0 3.984375 1.734375 5.96875q1.75 1.984375 4.390625 1.984375q2.609375 0 4.34375 -1.984375q1.75 -2.0 1.75 -6.078125q0 -3.859375 -1.75 -5.828125q-1.75 -1.9843788 -4.34375 -1.9843788q-2.640625 0 -4.390625 1.9687538q-1.734375 1.96875 -1.734375 5.953125zm19.902344 10.375l0 -20.750004l3.171875 0l0 3.15625q1.203125 -2.21875 2.234375 -2.921875q1.03125 -0.703125 2.25 -0.703125q1.78125 0 3.625 1.140625l-1.21875 3.2656288q-1.28125 -0.7656288 -2.578125 -0.7656288q-1.15625 0 -2.078125 0.7031288q-0.90625 0.6875 -1.296875 1.90625q-0.59375 1.875 -0.59375 4.109375l0 10.859375l-3.515625 0zm13.3671875 0l0 -20.750004l3.140625 0l0 2.921875q0.984375 -1.53125 2.59375 -2.453125q1.625 -0.9375 3.703125 -0.9375q2.296875 0 3.765625 0.96875q1.484375 0.953125 2.09375 2.671875q2.453125 -3.640625 6.40625 -3.640625q3.078125 0 4.734375 1.71875q1.671875 1.703125 1.671875 5.265629l0 14.234375l-3.5 0l0 -13.0625q0 -2.109375 -0.34375 -3.03125q-0.34375 -0.9375038 -1.25 -1.5000038q-0.890625 -0.578125 -2.09375 -0.578125q-2.1875 0 -3.640625 1.4687538q-1.4375 1.453125 -1.4375 4.65625l0 12.046875l-3.515625 0l0 -13.484375q0 -2.34375 -0.859375 -3.515625q-0.859375 -1.1718788 -2.8125 -1.1718788q-1.484375 0 -2.75 0.78125q-1.265625 0.7812538 -1.828125 2.2968788q-0.5625 1.5 -0.5625 4.328125l0 10.765625l-3.515625 0z" fill-rule="nonzero"></path><path fill="#ffffff" d="m63.39895 156.12073l313.19684 0l0 63.59056l-313.19684 0z" fill-rule="nonzero"></path><path stroke="#000000" stroke-width="2.0" stroke-linejoin="round" stroke-linecap="butt" d="m63.39895 156.12073l313.19684 0l0 63.59056l-313.19684 0z" fill-rule="nonzero"></path><path fill="#ffffff" d="m63.39895 313.0971l313.19684 0l0 63.590546l-313.19684 0z" fill-rule="nonzero"></path><path stroke="#000000" stroke-width="2.0" stroke-linejoin="round" stroke-linecap="butt" d="m63.39895 313.0971l313.19684 0l0 63.590546l-313.19684 0z" fill-rule="nonzero"></path><path fill="#ffffff" d="m63.39895 470.0735l313.19684 0l0 63.590576l-313.19684 0z" fill-rule="nonzero"></path><path stroke="#000000" stroke-width="2.0" stroke-linejoin="round" stroke-linecap="butt" d="m63.39895 470.0735l313.19684 0l0 63.590576l-313.19684 0z" fill-rule="nonzero"></path><path fill="#cfe2f3" d="m558.1732 98.4042l356.72443 0l0 492.97635l-356.72443 0z" fill-rule="nonzero"></path><path stroke="#000000" stroke-width="2.0" stroke-linejoin="round" stroke-linecap="butt" d="m558.1732 98.4042l356.72443 0l0 492.97635l-356.72443 0z" fill-rule="nonzero"></path><path fill="#000000" fill-opacity="0.0" d="m648.53546 34.81365l175.99994 0l0 63.59055l-175.99994 0z" fill-rule="nonzero"></path><path fill="#000000" d="m679.4261 71.8058l3.578125 -0.3125q0.25 2.15625 1.171875 3.53125q0.9375 1.375 2.890625 2.234375q1.953125 0.84375 4.390625 0.84375q2.171875 0 3.828125 -0.640625q1.65625 -0.65625 2.46875 -1.78125q0.8125 -1.125 0.8125 -2.453125q0 -1.34375 -0.78125 -2.34375q-0.78125 -1.015625 -2.578125 -1.6875q-1.15625 -0.453125 -5.109375 -1.390625q-3.9375 -0.953125 -5.515625 -1.796875q-2.046875 -1.078125 -3.0625 -2.6718788q-1.0 -1.59375 -1.0 -3.5625q0 -2.171875 1.234375 -4.046875q1.234375 -1.890625 3.59375 -2.859375q2.359375 -0.984375 5.25 -0.984375q3.1875 0 5.609375 1.03125q2.4375 1.015625 3.75 3.015625q1.3125 1.984375 1.40625 4.515625l-3.640625 0.265625q-0.28125 -2.71875 -1.984375 -4.09375q-1.6875 -1.390625 -4.984375 -1.390625q-3.4375 0 -5.015625 1.265625q-1.5625 1.25 -1.5625 3.03125q0 1.546875 1.109375 2.53125q1.09375 1.0 5.703125 2.0468788q4.625 1.046875 6.34375 1.828125q2.5 1.15625 3.6875 2.921875q1.203125 1.765625 1.203125 4.0625q0 2.296875 -1.3125 4.3125q-1.3125 2.015625 -3.765625 3.140625q-2.4375 1.125 -5.515625 1.125q-3.875 0 -6.515625 -1.125q-2.625 -1.140625 -4.125 -3.40625q-1.484375 -2.28125 -1.5625 -5.15625zm41.726562 2.515625l3.625 0.453125q-0.859375 3.1875 -3.1875 4.953125q-2.3125 1.75 -5.9375 1.75q-4.546875 0 -7.21875 -2.796875q-2.65625 -2.8125 -2.65625 -7.875q0 -5.234375 2.6875 -8.125004q2.703125 -2.890625 7.0 -2.890625q4.15625 0 6.796875 2.84375q2.640625 2.8281288 2.640625 7.968754q0 0.3125 -0.03125 0.9375l-15.46875 0q0.203125 3.40625 1.9375 5.234375q1.734375 1.8125 4.34375 1.8125q1.921875 0 3.28125 -1.015625q1.375 -1.015625 2.1875 -3.25zm-11.546875 -5.671875l11.578125 0q-0.234375 -2.625 -1.328125 -3.9375q-1.671875 -2.0312538 -4.359375 -2.0312538q-2.421875 0 -4.078125 1.6250038q-1.640625 1.625 -1.8125 4.34375zm19.542969 12.359375l0 -20.750004l3.171875 0l0 3.15625q1.203125 -2.21875 2.234375 -2.921875q1.03125 -0.703125 2.25 -0.703125q1.78125 0 3.625 1.140625l-1.21875 3.2656288q-1.28125 -0.7656288 -2.578125 -0.7656288q-1.15625 0 -2.078125 0.7031288q-0.90625 0.6875 -1.296875 1.90625q-0.59375 1.875 -0.59375 4.109375l0 10.859375l-3.515625 0zm19.132812 0l-7.890625 -20.750004l3.703125 0l4.453125 12.421879q0.71875 2.015625 1.328125 4.1875q0.46875 -1.640625 1.3125 -3.953125l4.609375 -12.656254l3.609375 0l-7.84375 20.750004l-3.28125 0zm28.4375 -6.6875l3.625 0.453125q-0.859375 3.1875 -3.1875 4.953125q-2.3125 1.75 -5.9375 1.75q-4.546875 0 -7.21875 -2.796875q-2.65625 -2.8125 -2.65625 -7.875q0 -5.234375 2.6875 -8.125004q2.703125 -2.890625 7.0 -2.890625q4.15625 0 6.796875 2.84375q2.640625 2.8281288 2.640625 7.968754q0 0.3125 -0.03125 0.9375l-15.46875 0q0.203125 3.40625 1.9375 5.234375q1.734375 1.8125 4.34375 1.8125q1.921875 0 3.28125 -1.015625q1.375 -1.015625 2.1875 -3.25zm-11.546875 -5.671875l11.578125 0q-0.234375 -2.625 -1.328125 -3.9375q-1.671875 -2.0312538 -4.359375 -2.0312538q-2.421875 0 -4.078125 1.6250038q-1.640625 1.625 -1.8125 4.34375zm19.542969 12.359375l0 -20.750004l3.171875 0l0 3.15625q1.203125 -2.21875 2.234375 -2.921875q1.03125 -0.703125 2.25 -0.703125q1.78125 0 3.625 1.140625l-1.21875 3.2656288q-1.28125 -0.7656288 -2.578125 -0.7656288q-1.15625 0 -2.078125 0.7031288q-0.90625 0.6875 -1.296875 1.90625q-0.59375 1.875 -0.59375 4.109375l0 10.859375l-3.515625 0z" fill-rule="nonzero"></path></g></svg>

