<?xml version="1.0" standalone="yes"?>

<svg version="1.1" viewBox="0.0 0.0 957.0 634.0" fill="none" stroke="none" stroke-linecap="square" stroke-miterlimit="10" xmlns="http://www.w3.org/2000/svg" xmlns:xlink="http://www.w3.org/1999/xlink"><clipPath id="p.0"><path d="m0 0l957.0 0l0 634.0l-957.0 0l0 -634.0z" clip-rule="nonzero"></path></clipPath><g clip-path="url(#p.0)"><path fill="#000000" fill-opacity="0.0" d="m0 0l957.56696 0l0 634.89764l-957.56696 0z" fill-rule="nonzero"></path><path fill="#000000" fill-opacity="0.0" d="m-0.003937008 193.9685l957.5748 0l0 63.590546l-957.5748 0z" fill-rule="nonzero"></path><path fill="#000000" d="m21.85965 227.64815l0 -3.28125l18.96875 -8.015625l0 3.5l-15.046875 6.171875l15.046875 6.234375l0 3.484375l-18.96875 -8.09375z" fill-rule="nonzero"></path><path fill="#6aa84f" d="m45.687775 215.57002l0 -4.046875l3.515625 0l0 4.046875l-3.515625 0zm0 24.59375l0 -20.75l3.515625 0l0 20.75l-3.515625 0zm8.871094 0l0 -20.75l3.15625 0l0 2.953125q2.296875 -3.421875 6.609375 -3.421875q1.875 0 3.4375 0.6875q1.578125 0.671875 2.359375 1.765625q0.78125 1.09375 1.09375 2.59375q0.203125 0.96875 0.203125 3.421875l0 12.75l-3.515625 0l0 -12.625q0 -2.140625 -0.421875 -3.203125q-0.40625 -1.0625 -1.453125 -1.703125q-1.046875 -0.640625 -2.453125 -0.640625q-2.234375 0 -3.875 1.4375q-1.625 1.421875 -1.625 5.40625l0 11.328125l-3.515625 0zm22.246094 7.953125l0 -28.703125l3.203125 0l0 2.703125q1.125 -1.578125 2.546875 -2.375q1.4375 -0.796875 3.46875 -0.796875q2.65625 0 4.6875 1.375q2.03125 1.359375 3.0625 3.859375q1.03125 2.484375 1.03125 5.453125q0 3.1875 -1.140625 5.734375q-1.140625 2.546875 -3.328125 3.90625q-2.171875 1.359375 -4.5625 1.359375q-1.765625 0 -3.171875 -0.734375q-1.390625 -0.75 -2.28125 -1.890625l0 10.109375l-3.515625 0zm3.1875 -18.203125q0 4.0 1.609375 5.921875q1.625 1.90625 3.9375 1.90625q2.34375 0 4.0 -1.984375q1.671875 -1.984375 1.671875 -6.140625q0 -3.96875 -1.625 -5.9375q-1.625 -1.96875 -3.890625 -1.96875q-2.25 0 -3.984375 2.09375q-1.71875 2.09375 -1.71875 6.109375zm32.652344 10.25l0 -3.046875q-2.421875 3.515625 -6.578125 3.515625q-1.84375 0 -3.4375 -0.703125q-1.59375 -0.703125 -2.359375 -1.765625q-0.765625 -1.0625 -1.078125 -2.609375q-0.21875 -1.03125 -0.21875 -3.28125l0 -12.859375l3.515625 0l0 11.515625q0 2.75 0.21875 3.703125q0.328125 1.390625 1.390625 2.1875q1.078125 0.78125 2.671875 0.78125q1.578125 0 2.953125 -0.8125q1.390625 -0.8125 1.96875 -2.203125q0.578125 -1.390625 0.578125 -4.046875l0 -11.125l3.515625 0l0 20.75l-3.140625 0zm16.324219 -3.140625l0.515625 3.09375q-1.484375 0.328125 -2.65625 0.328125q-1.921875 0 -2.984375 -0.609375q-1.046875 -0.609375 -1.484375 -1.59375q-0.421875 -0.984375 -0.421875 -4.15625l0 -11.9375l-2.578125 0l0 -2.734375l2.578125 0l0 -5.125l3.5 -2.109375l0 7.234375l3.53125 0l0 2.734375l-3.53125 0l0 12.140625q0 1.5 0.1875 1.9375q0.1875 0.421875 0.59375 0.671875q0.421875 0.25 1.203125 0.25q0.59375 0 1.546875 -0.125z" fill-rule="nonzero"></path><path fill="#6aa84f" d="m151.19559 237.02315l0.515625 3.09375q-1.484375 0.328125 -2.65625 0.328125q-1.921875 0 -2.984375 -0.609375q-1.046875 -0.609375 -1.484375 -1.59375q-0.421875 -0.984375 -0.421875 -4.15625l0 -11.9375l-2.578125 0l0 -2.734375l2.578125 0l0 -5.125l3.5 -2.109375l0 7.234375l3.53125 0l0 2.734375l-3.53125 0l0 12.140625q0 1.5 0.1875 1.9375q0.1875 0.421875 0.59375 0.671875q0.421875 0.25 1.203125 0.25q0.59375 0 1.546875 -0.125zm3.2851562 11.125l-0.390625 -3.296875q1.15625 0.3125 2.015625 0.3125q1.171875 0 1.875 -0.390625q0.703125 -0.390625 1.140625 -1.09375q0.34375 -0.53125 1.078125 -2.609375q0.09375 -0.296875 0.3125 -0.859375l-7.875 -20.796875l3.796875 0l4.3125 12.015625q0.84375 2.28125 1.5 4.8125q0.609375 -2.421875 1.453125 -4.734375l4.4375 -12.09375l3.515625 0l-7.890625 21.109375q-1.28125 3.40625 -1.984375 4.703125q-0.9375 1.734375 -2.15625 2.546875q-1.203125 0.8125 -2.875 0.8125q-1.015625 0 -2.265625 -0.4375zm20.15625 -0.03125l0 -28.703125l3.203125 0l0 2.703125q1.125 -1.578125 2.546875 -2.375q1.4375 -0.796875 3.46875 -0.796875q2.65625 0 4.6875 1.375q2.03125 1.359375 3.0625 3.859375q1.03125 2.484375 1.03125 5.453125q0 3.1875 -1.140625 5.734375q-1.140625 2.546875 -3.328125 3.90625q-2.171875 1.359375 -4.5625 1.359375q-1.765625 0 -3.171875 -0.734375q-1.390625 -0.75 -2.28125 -1.890625l0 10.109375l-3.515625 0zm3.1875 -18.203125q0 4.0 1.609375 5.921875q1.625 1.90625 3.9375 1.90625q2.34375 0 4.0 -1.984375q1.671875 -1.984375 1.671875 -6.140625q0 -3.96875 -1.625 -5.9375q-1.625 -1.96875 -3.890625 -1.96875q-2.25 0 -3.984375 2.09375q-1.71875 2.09375 -1.71875 6.109375zm33.26172 3.5625l3.625 0.453125q-0.859375 3.1875 -3.1875 4.953125q-2.3125 1.75 -5.9375 1.75q-4.546875 0 -7.21875 -2.796875q-2.65625 -2.8125 -2.65625 -7.875q0 -5.234375 2.6875 -8.125q2.703125 -2.890625 7.0 -2.890625q4.15625 0 6.796875 2.84375q2.640625 2.828125 2.640625 7.96875q0 0.3125 -0.03125 0.9375l-15.46875 0q0.203125 3.40625 1.9375 5.234375q1.734375 1.8125 4.34375 1.8125q1.921875 0 3.28125 -1.015625q1.375 -1.015625 2.1875 -3.25zm-11.546875 -5.671875l11.578125 0q-0.234375 -2.625 -1.328125 -3.9375q-1.671875 -2.03125 -4.359375 -2.03125q-2.421875 0 -4.078125 1.625q-1.640625 1.625 -1.8125 4.34375zm38.089844 -4.484375l-18.90625 0l0 -3.28125l18.90625 0l0 3.28125zm0 8.703125l-18.90625 0l0 -3.28125l18.90625 0l0 3.28125zm3.921875 -16.703125l0 -4.078125l3.765625 0l0 3.21875q0 2.609375 -0.609375 3.765625q-0.828125 1.578125 -2.609375 2.390625l-0.859375 -1.390625q1.046875 -0.4375 1.5625 -1.359375q0.53125 -0.921875 0.578125 -2.546875l-1.828125 0zm6.046875 0l0 -4.078125l3.78125 0l0 3.21875q0 2.609375 -0.609375 3.765625q-0.84375 1.578125 -2.625 2.390625l-0.859375 -1.390625q1.0625 -0.4375 1.578125 -1.359375q0.515625 -0.921875 0.578125 -2.546875l-1.84375 0zm15.8828125 21.703125l0.515625 3.09375q-1.484375 0.328125 -2.65625 0.328125q-1.921875 0 -2.984375 -0.609375q-1.046875 -0.609375 -1.484375 -1.59375q-0.421875 -0.984375 -0.421875 -4.15625l0 -11.9375l-2.578125 0l0 -2.734375l2.578125 0l0 -5.125l3.5 -2.109375l0 7.234375l3.53125 0l0 2.734375l-3.53125 0l0 12.140625q0 1.5 0.1875 1.9375q0.1875 0.421875 0.59375 0.671875q0.421875 0.25 1.203125 0.25q0.59375 0 1.546875 -0.125zm17.644531 -3.546875l3.625 0.453125q-0.859375 3.1875 -3.1875 4.953125q-2.3125 1.75 -5.9375 1.75q-4.546875 0 -7.21875 -2.796875q-2.65625 -2.8125 -2.65625 -7.875q0 -5.234375 2.6875 -8.125q2.703125 -2.890625 7.0 -2.890625q4.15625 0 6.796875 2.84375q2.640625 2.828125 2.640625 7.96875q0 0.3125 -0.03125 0.9375l-15.46875 0q0.203125 3.40625 1.9375 5.234375q1.734375 1.8125 4.34375 1.8125q1.921875 0 3.28125 -1.015625q1.375 -1.015625 2.1875 -3.25zm-11.546875 -5.671875l11.578125 0q-0.234375 -2.625 -1.328125 -3.9375q-1.671875 -2.03125 -4.359375 -2.03125q-2.421875 0 -4.078125 1.625q-1.640625 1.625 -1.8125 4.34375zm17.246094 12.359375l7.578125 -10.78125l-7.015625 -9.96875l4.390625 0l3.1875 4.875q0.90625 1.375 1.453125 2.3125q0.859375 -1.28125 1.578125 -2.28125l3.5 -4.90625l4.1875 0l-7.15625 9.765625l7.703125 10.984375l-4.3125 0l-4.25 -6.453125l-1.140625 -1.734375l-5.453125 8.1875l-4.25 0zm30.015625 -3.140625l0.515625 3.09375q-1.484375 0.328125 -2.65625 0.328125q-1.921875 0 -2.984375 -0.609375q-1.046875 -0.609375 -1.484375 -1.59375q-0.421875 -0.984375 -0.421875 -4.15625l0 -11.9375l-2.578125 0l0 -2.734375l2.578125 0l0 -5.125l3.5 -2.109375l0 7.234375l3.53125 0l0 2.734375l-3.53125 0l0 12.140625q0 1.5 0.1875 1.9375q0.1875 0.421875 0.59375 0.671875q0.421875 0.25 1.203125 0.25q0.59375 0 1.546875 -0.125zm2.5039062 -21.703125l0 -4.078125l3.765625 0l0 3.21875q0 2.609375 -0.609375 3.765625q-0.828125 1.578125 -2.609375 2.390625l-0.859375 -1.390625q1.046875 -0.4375 1.5625 -1.359375q0.53125 -0.921875 0.578125 -2.546875l-1.828125 0zm6.046875 0l0 -4.078125l3.78125 0l0 3.21875q0 2.609375 -0.609375 3.765625q-0.84375 1.578125 -2.625 2.390625l-0.859375 -1.390625q1.0625 -0.4375 1.578125 -1.359375q0.515625 -0.921875 0.578125 -2.546875l-1.84375 0z" fill-rule="nonzero"></path><path fill="#cc0000" d="m344.71512 240.16377l0 -20.75l3.15625 0l0 2.953125q2.296875 -3.421875 6.609375 -3.421875q1.875 0 3.4375 0.6875q1.578125 0.671875 2.359375 1.765625q0.78125 1.09375 1.09375 2.59375q0.203125 0.96875 0.203125 3.421875l0 12.75l-3.515625 0l0 -12.625q0 -2.140625 -0.421875 -3.203125q-0.40625 -1.0625 -1.453125 -1.703125q-1.046875 -0.640625 -2.453125 -0.640625q-2.234375 0 -3.875 1.4375q-1.625 1.421875 -1.625 5.40625l0 11.328125l-3.515625 0zm21.605469 1.71875l3.40625 0.515625q0.21875 1.578125 1.203125 2.296875q1.296875 0.984375 3.5625 0.984375q2.453125 0 3.78125 -0.984375q1.328125 -0.96875 1.796875 -2.734375q0.265625 -1.078125 0.25 -4.515625q-2.3125 2.71875 -5.75 2.71875q-4.265625 0 -6.609375 -3.078125q-2.34375 -3.09375 -2.34375 -7.40625q0 -2.96875 1.0625 -5.484375q1.078125 -2.515625 3.109375 -3.875q2.046875 -1.375 4.8125 -1.375q3.671875 0 6.046875 2.96875l0 -2.5l3.25 0l0 17.9375q0 4.84375 -1.0 6.859375q-0.984375 2.03125 -3.125 3.203125q-2.125 1.171875 -5.25 1.171875q-3.71875 0 -6.0 -1.671875q-2.28125 -1.671875 -2.203125 -5.03125zm2.90625 -12.46875q0 4.09375 1.609375 5.96875q1.625 1.875 4.078125 1.875q2.421875 0 4.0625 -1.859375q1.640625 -1.875 1.640625 -5.859375q0 -3.8125 -1.703125 -5.734375q-1.6875 -1.9375 -4.0625 -1.9375q-2.34375 0 -3.984375 1.90625q-1.640625 1.890625 -1.640625 5.640625zm18.605469 2.15625l0 -3.53125l10.8125 0l0 3.53125l-10.8125 0zm14.6953125 8.59375l0 -20.75l3.140625 0l0 2.921875q0.984375 -1.53125 2.59375 -2.453125q1.625 -0.9375 3.703125 -0.9375q2.296875 0 3.765625 0.96875q1.484375 0.953125 2.09375 2.671875q2.453125 -3.640625 6.40625 -3.640625q3.078125 0 4.734375 1.71875q1.671875 1.703125 1.671875 5.265625l0 14.234375l-3.5 0l0 -13.0625q0 -2.109375 -0.34375 -3.03125q-0.34375 -0.9375 -1.25 -1.5q-0.890625 -0.578125 -2.09375 -0.578125q-2.1875 0 -3.640625 1.46875q-1.4375 1.453125 -1.4375 4.65625l0 12.046875l-3.515625 0l0 -13.484375q0 -2.34375 -0.859375 -3.515625q-0.859375 -1.171875 -2.8125 -1.171875q-1.484375 0 -2.75 0.78125q-1.265625 0.78125 -1.828125 2.296875q-0.5625 1.5 -0.5625 4.328125l0 10.765625l-3.515625 0zm32.007812 -10.375q0 -5.765625 3.203125 -8.53125q2.671875 -2.3125 6.53125 -2.3125q4.265625 0 6.984375 2.8125q2.71875 2.796875 2.71875 7.734375q0 4.015625 -1.203125 6.3125q-1.203125 2.28125 -3.5 3.5625q-2.296875 1.265625 -5.0 1.265625q-4.359375 0 -7.046875 -2.796875q-2.6875 -2.796875 -2.6875 -8.046875zm3.609375 0q0 3.984375 1.734375 5.96875q1.75 1.984375 4.390625 1.984375q2.609375 0 4.34375 -1.984375q1.75 -2.0 1.75 -6.078125q0 -3.859375 -1.75 -5.828125q-1.75 -1.984375 -4.34375 -1.984375q-2.640625 0 -4.390625 1.96875q-1.734375 1.96875 -1.734375 5.953125zm33.402344 10.375l0 -2.625q-1.96875 3.09375 -5.796875 3.09375q-2.484375 0 -4.5625 -1.359375q-2.078125 -1.375 -3.21875 -3.828125q-1.140625 -2.453125 -1.140625 -5.640625q0 -3.09375 1.03125 -5.625q1.03125 -2.53125 3.09375 -3.875q2.078125 -1.359375 4.640625 -1.359375q1.875 0 3.328125 0.796875q1.46875 0.796875 2.390625 2.0625l0 -10.28125l3.5 0l0 28.640625l-3.265625 0zm-11.109375 -10.359375q0 3.984375 1.671875 5.96875q1.6875 1.96875 3.96875 1.96875q2.3125 0 3.921875 -1.875q1.609375 -1.890625 1.609375 -5.765625q0 -4.25 -1.640625 -6.234375q-1.640625 -2.0 -4.046875 -2.0q-2.34375 0 -3.921875 1.921875q-1.5625 1.90625 -1.5625 6.015625zm34.10547 3.671875l3.625 0.453125q-0.859375 3.1875 -3.1875 4.953125q-2.3125 1.75 -5.9375 1.75q-4.546875 0 -7.21875 -2.796875q-2.65625 -2.8125 -2.65625 -7.875q0 -5.234375 2.6875 -8.125q2.703125 -2.890625 7.0 -2.890625q4.15625 0 6.796875 2.84375q2.640625 2.828125 2.640625 7.96875q0 0.3125 -0.03125 0.9375l-15.46875 0q0.203125 3.40625 1.9375 5.234375q1.734375 1.8125 4.34375 1.8125q1.921875 0 3.28125 -1.015625q1.375 -1.015625 2.1875 -3.25zm-11.546875 -5.671875l11.578125 0q-0.234375 -2.625 -1.328125 -3.9375q-1.671875 -2.03125 -4.359375 -2.03125q-2.421875 0 -4.078125 1.625q-1.640625 1.625 -1.8125 4.34375zm19.511719 12.359375l0 -28.640625l3.515625 0l0 28.640625l-3.515625 0zm27.464813 -16.84375l-18.90622 0l0 -3.28125l18.90622 0l0 3.28125zm0 8.703125l-18.90622 0l0 -3.28125l18.90622 0l0 3.28125zm3.921875 -16.703125l0 -4.078125l3.765625 0l0 3.21875q0 2.609375 -0.609375 3.765625q-0.828125 1.578125 -2.609375 2.390625l-0.859375 -1.390625q1.046875 -0.4375 1.5625 -1.359375q0.53125 -0.921875 0.578125 -2.546875l-1.828125 0zm6.046875 0l0 -4.078125l3.78125 0l0 3.21875q0 2.609375 -0.609375 3.765625q-0.84375 1.578125 -2.625 2.390625l-0.859375 -1.390625q1.0625 -0.4375 1.578125 -1.359375q0.515625 -0.921875 0.578125 -2.546875l-1.84375 0zm8.2109375 24.84375l0 -20.75l3.140625 0l0 2.921875q0.984375 -1.53125 2.59375 -2.453125q1.625 -0.9375 3.703125 -0.9375q2.296875 0 3.765625 0.96875q1.484375 0.953125 2.09375 2.671875q2.453125 -3.640625 6.40625 -3.640625q3.078125 0 4.734375 1.71875q1.671875 1.703125 1.671875 5.265625l0 14.234375l-3.5 0l0 -13.0625q0 -2.109375 -0.34375 -3.03125q-0.34375 -0.9375 -1.25 -1.5q-0.890625 -0.578125 -2.09375 -0.578125q-2.1875 0 -3.640625 1.46875q-1.4375 1.453125 -1.4375 4.65625l0 12.046875l-3.515625 0l0 -13.484375q0 -2.34375 -0.859375 -3.515625q-0.859375 -1.171875 -2.8125 -1.171875q-1.484375 0 -2.75 0.78125q-1.265625 0.78125 -1.828125 2.296875q-0.5625 1.5 -0.5625 4.328125l0 10.765625l-3.515625 0zm33.164062 7.984375l-0.390625 -3.296875q1.15625 0.3125 2.015625 0.3125q1.171875 0 1.875 -0.390625q0.703125 -0.390625 1.140625 -1.09375q0.34375 -0.53125 1.078125 -2.609375q0.09375 -0.296875 0.3125 -0.859375l-7.875 -20.796875l3.796875 0l4.3125 12.015625q0.84375 2.28125 1.5 4.8125q0.609375 -2.421875 1.453125 -4.734375l4.4375 -12.09375l3.515625 0l-7.890625 21.109375q-1.28125 3.40625 -1.984375 4.703125q-0.9375 1.734375 -2.15625 2.546875q-1.203125 0.8125 -2.875 0.8125q-1.015625 0 -2.265625 -0.4375zm20.796875 -7.984375l0 -28.640625l19.3125 0l0 3.390625l-15.515625 0l0 8.859375l13.4375 0l0 3.375l-13.4375 0l0 13.015625l-3.796875 0zm23.808594 -24.59375l0 -4.046875l3.515625 0l0 4.046875l-3.515625 0zm0 24.59375l0 -20.75l3.515625 0l0 20.75l-3.515625 0zm23.074219 -6.6875l3.625 0.453125q-0.859375 3.1875 -3.1875 4.953125q-2.3125 1.75 -5.9375 1.75q-4.546875 0 -7.21875 -2.796875q-2.65625 -2.8125 -2.65625 -7.875q0 -5.234375 2.6875 -8.125q2.703125 -2.890625 7.0 -2.890625q4.15625 0 6.796875 2.84375q2.640625 2.828125 2.640625 7.96875q0 0.3125 -0.03125 0.9375l-15.46875 0q0.203125 3.40625 1.9375 5.234375q1.734375 1.8125 4.34375 1.8125q1.921875 0 3.28125 -1.015625q1.375 -1.015625 2.1875 -3.25zm-11.546875 -5.671875l11.578125 0q-0.234375 -2.625 -1.328125 -3.9375q-1.671875 -2.03125 -4.359375 -2.03125q-2.421875 0 -4.078125 1.625q-1.640625 1.625 -1.8125 4.34375zm19.511719 12.359375l0 -28.640625l3.515625 0l0 28.640625l-3.515625 0zm22.417969 0l0 -2.625q-1.96875 3.09375 -5.796875 3.09375q-2.484375 0 -4.5625 -1.359375q-2.078125 -1.375 -3.21875 -3.828125q-1.140625 -2.453125 -1.140625 -5.640625q0 -3.09375 1.03125 -5.625q1.03125 -2.53125 3.09375 -3.875q2.078125 -1.359375 4.640625 -1.359375q1.875 0 3.328125 0.796875q1.46875 0.796875 2.390625 2.0625l0 -10.28125l3.5 0l0 28.640625l-3.265625 0zm-11.109375 -10.359375q0 3.984375 1.671875 5.96875q1.6875 1.96875 3.96875 1.96875q2.3125 0 3.921875 -1.875q1.609375 -1.890625 1.609375 -5.765625q0 -4.25 -1.640625 -6.234375q-1.640625 -2.0 -4.046875 -2.0q-2.34375 0 -3.921875 1.921875q-1.5625 1.90625 -1.5625 6.015625zm18.964844 -14.484375l0 -4.078125l3.765625 0l0 3.21875q0 2.609375 -0.609375 3.765625q-0.828125 1.578125 -2.609375 2.390625l-0.859375 -1.390625q1.046875 -0.4375 1.5625 -1.359375q0.53125 -0.921875 0.578125 -2.546875l-1.828125 0zm6.046875 0l0 -4.078125l3.78125 0l0 3.21875q0 2.609375 -0.609375 3.765625q-0.84375 1.578125 -2.625 2.390625l-0.859375 -1.390625q1.0625 -0.4375 1.578125 -1.359375q0.515625 -0.921875 0.578125 -2.546875l-1.84375 0z" fill-rule="nonzero"></path><path fill="#3d85c6" d="m712.6057 240.16377l0 -20.75l3.15625 0l0 2.953125q2.296875 -3.421875 6.609375 -3.421875q1.875 0 3.4375 0.6875q1.578125 0.671875 2.359375 1.765625q0.78125 1.09375 1.09375 2.59375q0.203125 0.96875 0.203125 3.421875l0 12.75l-3.515625 0l0 -12.625q0 -2.140625 -0.421875 -3.203125q-0.40625 -1.0625 -1.453125 -1.703125q-1.046875 -0.640625 -2.453125 -0.640625q-2.234375 0 -3.875 1.4375q-1.625 1.421875 -1.625 5.40625l0 11.328125l-3.515625 0zm21.605469 1.71875l3.40625 0.515625q0.21875 1.578125 1.203125 2.296875q1.296875 0.984375 3.5625 0.984375q2.453125 0 3.78125 -0.984375q1.328125 -0.96875 1.796875 -2.734375q0.265625 -1.078125 0.25 -4.515625q-2.3125 2.71875 -5.75 2.71875q-4.265625 0 -6.609375 -3.078125q-2.34375 -3.09375 -2.34375 -7.40625q0 -2.96875 1.0625 -5.484375q1.078125 -2.515625 3.109375 -3.875q2.046875 -1.375 4.8125 -1.375q3.671875 0 6.046875 2.96875l0 -2.5l3.25 0l0 17.9375q0 4.84375 -1.0 6.859375q-0.984375 2.03125 -3.125 3.203125q-2.125 1.171875 -5.25 1.171875q-3.71875 0 -6.0 -1.671875q-2.28125 -1.671875 -2.203125 -5.03125zm2.90625 -12.46875q0 4.09375 1.609375 5.96875q1.625 1.875 4.078125 1.875q2.421875 0 4.0625 -1.859375q1.640625 -1.875 1.640625 -5.859375q0 -3.8125 -1.703125 -5.734375q-1.6875 -1.9375 -4.0625 -1.9375q-2.34375 0 -3.984375 1.90625q-1.640625 1.890625 -1.640625 5.640625zm18.605469 2.15625l0 -3.53125l10.8125 0l0 3.53125l-10.8125 0zm14.6484375 8.59375l0 -20.75l3.171875 0l0 3.15625q1.203125 -2.21875 2.234375 -2.921875q1.03125 -0.703125 2.25 -0.703125q1.78125 0 3.625 1.140625l-1.21875 3.265625q-1.28125 -0.765625 -2.578125 -0.765625q-1.15625 0 -2.078125 0.703125q-0.90625 0.6875 -1.296875 1.90625q-0.59375 1.875 -0.59375 4.109375l0 10.859375l-3.515625 0zm27.570312 -6.6875l3.625 0.453125q-0.859375 3.1875 -3.1875 4.953125q-2.3125 1.75 -5.9375 1.75q-4.546875 0 -7.21875 -2.796875q-2.65625 -2.8125 -2.65625 -7.875q0 -5.234375 2.6875 -8.125q2.703125 -2.890625 7.0 -2.890625q4.15625 0 6.796875 2.84375q2.640625 2.828125 2.640625 7.96875q0 0.3125 -0.03125 0.9375l-15.46875 0q0.203125 3.40625 1.9375 5.234375q1.734375 1.8125 4.34375 1.8125q1.921875 0 3.28125 -1.015625q1.375 -1.015625 2.1875 -3.25zm-11.546875 -5.671875l11.578125 0q-0.234375 -2.625 -1.328125 -3.9375q-1.671875 -2.03125 -4.359375 -2.03125q-2.421875 0 -4.078125 1.625q-1.640625 1.625 -1.8125 4.34375zm32.808594 20.3125l0 -10.15625q-0.8125 1.140625 -2.296875 1.90625q-1.46875 0.765625 -3.125 0.765625q-3.703125 0 -6.375 -2.953125q-2.65625 -2.953125 -2.65625 -8.078125q0 -3.125 1.078125 -5.609375q1.09375 -2.484375 3.15625 -3.765625q2.0625 -1.28125 4.515625 -1.28125q3.84375 0 6.0625 3.25l0 -2.78125l3.15625 0l0 28.703125l-3.515625 0zm-10.84375 -18.390625q0 4.015625 1.671875 6.015625q1.6875 2.0 4.03125 2.0q2.25 0 3.875 -1.90625q1.625 -1.90625 1.625 -5.796875q0 -4.140625 -1.71875 -6.21875q-1.703125 -2.09375 -4.015625 -2.09375q-2.28125 0 -3.875 1.953125q-1.59375 1.9375 -1.59375 6.046875zm33.464844 10.4375l0 -3.046875q-2.421875 3.515625 -6.578125 3.515625q-1.84375 0 -3.4375 -0.703125q-1.59375 -0.703125 -2.359375 -1.765625q-0.765625 -1.0625 -1.078125 -2.609375q-0.21875 -1.03125 -0.21875 -3.28125l0 -12.859375l3.515625 0l0 11.515625q0 2.75 0.21875 3.703125q0.328125 1.390625 1.390625 2.1875q1.078125 0.78125 2.671875 0.78125q1.578125 0 2.953125 -0.8125q1.390625 -0.8125 1.96875 -2.203125q0.578125 -1.390625 0.578125 -4.046875l0 -11.125l3.515625 0l0 20.75l-3.140625 0zm8.667969 -24.59375l0 -4.046875l3.515625 0l0 4.046875l-3.515625 0zm0 24.59375l0 -20.75l3.515625 0l0 20.75l-3.515625 0zm8.824219 0l0 -20.75l3.171875 0l0 3.15625q1.203125 -2.21875 2.234375 -2.921875q1.03125 -0.703125 2.25 -0.703125q1.78125 0 3.625 1.140625l-1.21875 3.265625q-1.28125 -0.765625 -2.578125 -0.765625q-1.15625 0 -2.078125 0.703125q-0.90625 0.6875 -1.296875 1.90625q-0.59375 1.875 -0.59375 4.109375l0 10.859375l-3.515625 0zm27.570312 -6.6875l3.625 0.453125q-0.859375 3.1875 -3.1875 4.953125q-2.3125 1.75 -5.9375 1.75q-4.546875 0 -7.21875 -2.796875q-2.65625 -2.8125 -2.65625 -7.875q0 -5.234375 2.6875 -8.125q2.703125 -2.890625 7.0 -2.890625q4.15625 0 6.796875 2.84375q2.640625 2.828125 2.640625 7.96875q0 0.3125 -0.03125 0.9375l-15.46875 0q0.203125 3.40625 1.9375 5.234375q1.734375 1.8125 4.34375 1.8125q1.921875 0 3.28125 -1.015625q1.375 -1.015625 2.1875 -3.25zm-11.546875 -5.671875l11.578125 0q-0.234375 -2.625 -1.328125 -3.9375q-1.671875 -2.03125 -4.359375 -2.03125q-2.421875 0 -4.078125 1.625q-1.640625 1.625 -1.8125 4.34375zm33.04297 12.359375l0 -2.625q-1.96875 3.09375 -5.796875 3.09375q-2.484375 0 -4.5625 -1.359375q-2.078125 -1.375 -3.21875 -3.828125q-1.140625 -2.453125 -1.140625 -5.640625q0 -3.09375 1.03125 -5.625q1.03125 -2.53125 3.09375 -3.875q2.078125 -1.359375 4.640625 -1.359375q1.875 0 3.328125 0.796875q1.46875 0.796875 2.390625 2.0625l0 -10.28125l3.5 0l0 28.640625l-3.265625 0zm-11.109375 -10.359375q0 3.984375 1.671875 5.96875q1.6875 1.96875 3.96875 1.96875q2.3125 0 3.921875 -1.875q1.609375 -1.890625 1.609375 -5.765625q0 -4.25 -1.640625 -6.234375q-1.640625 -2.0 -4.046875 -2.0q-2.34375 0 -3.921875 1.921875q-1.5625 1.90625 -1.5625 6.015625z" fill-rule="nonzero"></path><path fill="#000000" d="m935.69165 227.64815l-18.96875 8.09375l0 -3.484375l15.015625 -6.234375l-15.015625 -6.171875l0 -3.5l18.96875 8.015625l0 3.28125z" fill-rule="nonzero"></path><path fill="#000000" fill-opacity="0.0" d="m90.83465 147.6063l194.92914 0l0 63.59056l-194.92914 0z" fill-rule="nonzero"></path><path fill="#6aa84f" d="m107.77327 185.22533l0.265625 1.640625q-0.78125 0.15625 -1.40625 0.15625q-1.0 0 -1.5625 -0.3125q-0.546875 -0.328125 -0.78125 -0.84375q-0.21875 -0.515625 -0.21875 -2.171875l0 -6.265625l-1.34375 0l0 -1.4375l1.34375 0l0 -2.703125l1.84375 -1.09375l0 3.796875l1.859375 0l0 1.4375l-1.859375 0l0 6.359375q0 0.796875 0.09375 1.03125q0.09375 0.21875 0.3125 0.359375q0.21875 0.125 0.640625 0.125q0.296875 0 0.8125 -0.078125zm9.347519 -1.84375l1.90625 0.234375q-0.453125 1.671875 -1.671875 2.59375q-1.21875 0.921875 -3.125 0.921875q-2.390625 0 -3.796875 -1.46875q-1.390625 -1.484375 -1.390625 -4.140625q0 -2.734375 1.40625 -4.25q1.421875 -1.53125 3.6875 -1.53125q2.1875 0 3.5625 1.5q1.390625 1.484375 1.390625 4.171875q0 0.171875 -0.015625 0.5l-8.125 0q0.109375 1.796875 1.015625 2.75q0.921875 0.953125 2.28125 0.953125q1.015625 0 1.734375 -0.53125q0.71875 -0.546875 1.140625 -1.703125zm-6.0625 -2.984375l6.078125 0q-0.125 -1.375 -0.703125 -2.0625q-0.875 -1.078125 -2.28125 -1.078125q-1.265625 0 -2.140625 0.859375q-0.859375 0.84375 -0.953125 2.28125zm9.236694 6.484375l3.96875 -5.65625l-3.671875 -5.234375l2.3125 0l1.671875 2.546875q0.46875 0.734375 0.75 1.234375q0.453125 -0.6875 0.828125 -1.203125l1.84375 -2.578125l2.203125 0l-3.765625 5.125l4.046875 5.765625l-2.265625 0l-2.234375 -3.390625l-0.59375 -0.90625l-2.859375 4.296875l-2.234375 0zm15.9296875 -1.65625l0.265625 1.640625q-0.78125 0.15625 -1.40625 0.15625q-1.0 0 -1.5625 -0.3125q-0.546875 -0.328125 -0.78125 -0.84375q-0.21875 -0.515625 -0.21875 -2.171875l0 -6.265625l-1.34375 0l0 -1.4375l1.34375 0l0 -2.703125l1.84375 -1.09375l0 3.796875l1.859375 0l0 1.4375l-1.859375 0l0 6.359375q0 0.796875 0.09375 1.03125q0.09375 0.21875 0.3125 0.359375q0.21875 0.125 0.640625 0.125q0.296875 0 0.8125 -0.078125zm7.820038 -11.25l0 -2.125l1.84375 0l0 2.125l-1.84375 0zm0 12.90625l0 -10.890625l1.84375 0l0 10.890625l-1.84375 0zm4.738434 0l0 -10.890625l1.65625 0l0 1.546875q1.203125 -1.796875 3.46875 -1.796875q0.984375 0 1.796875 0.359375q0.828125 0.359375 1.234375 0.9375q0.421875 0.5625 0.578125 1.359375q0.109375 0.5 0.109375 1.78125l0 6.703125l-1.84375 0l0 -6.625q0 -1.125 -0.21875 -1.6875q-0.21875 -0.5625 -0.765625 -0.890625q-0.546875 -0.328125 -1.28125 -0.328125q-1.1875 0 -2.046875 0.75q-0.84375 0.734375 -0.84375 2.828125l0 5.953125l-1.84375 0zm11.861694 4.171875l0 -15.0625l1.671875 0l0 1.421875q0.59375 -0.84375 1.34375 -1.25q0.75 -0.421875 1.8125 -0.421875q1.40625 0 2.46875 0.71875q1.0625 0.71875 1.609375 2.03125q0.546875 1.3125 0.546875 2.859375q0 1.671875 -0.609375 3.015625q-0.59375 1.34375 -1.734375 2.0625q-1.140625 0.703125 -2.40625 0.703125q-0.921875 0 -1.65625 -0.390625q-0.734375 -0.390625 -1.203125 -0.984375l0 5.296875l-1.84375 0zm1.671875 -9.5625q0 2.109375 0.84375 3.125q0.859375 1.0 2.0625 1.0q1.234375 0 2.109375 -1.046875q0.875 -1.046875 0.875 -3.21875q0 -2.09375 -0.859375 -3.125q-0.859375 -1.03125 -2.046875 -1.03125q-1.171875 0 -2.078125 1.109375q-0.90625 1.09375 -0.90625 3.1875zm17.31482 5.390625l0 -1.59375q-1.265625 1.84375 -3.453125 1.84375q-0.953125 0 -1.796875 -0.375q-0.828125 -0.375 -1.234375 -0.921875q-0.40625 -0.5625 -0.578125 -1.375q-0.109375 -0.546875 -0.109375 -1.71875l0 -6.75l1.84375 0l0 6.046875q0 1.4375 0.109375 1.9375q0.171875 0.734375 0.734375 1.15625q0.578125 0.40625 1.40625 0.40625q0.828125 0 1.546875 -0.421875q0.734375 -0.421875 1.03125 -1.15625q0.3125 -0.734375 0.3125 -2.140625l0 -5.828125l1.84375 0l0 10.890625l-1.65625 0zm8.767944 -1.65625l0.265625 1.640625q-0.78125 0.15625 -1.40625 0.15625q-1.0 0 -1.5625 -0.3125q-0.546875 -0.328125 -0.78125 -0.84375q-0.21875 -0.515625 -0.21875 -2.171875l0 -6.265625l-1.34375 0l0 -1.4375l1.34375 0l0 -2.703125l1.84375 -1.09375l0 3.796875l1.859375 0l0 1.4375l-1.859375 0l0 6.359375q0 0.796875 0.09375 1.03125q0.09375 0.21875 0.3125 0.359375q0.21875 0.125 0.640625 0.125q0.296875 0 0.8125 -0.078125zm14.882538 1.65625l0 -1.375q-1.046875 1.625 -3.046875 1.625q-1.296875 0 -2.390625 -0.71875q-1.09375 -0.71875 -1.703125 -2.0q-0.59375 -1.296875 -0.59375 -2.96875q0 -1.625 0.546875 -2.953125q0.546875 -1.328125 1.625 -2.03125q1.09375 -0.71875 2.4375 -0.71875q0.984375 0 1.75 0.421875q0.765625 0.40625 1.25 1.078125l0 -5.390625l1.828125 0l0 15.03125l-1.703125 0zm-5.84375 -5.4375q0 2.09375 0.875 3.140625q0.890625 1.03125 2.09375 1.03125q1.203125 0 2.046875 -0.984375q0.859375 -1.0 0.859375 -3.03125q0 -2.234375 -0.875 -3.28125q-0.859375 -1.046875 -2.109375 -1.046875q-1.234375 0 -2.0625 1.015625q-0.828125 1.0 -0.828125 3.15625zm10.642944 -7.46875l0 -2.125l1.84375 0l0 2.125l-1.84375 0zm0 12.90625l0 -10.890625l1.84375 0l0 10.890625l-1.84375 0zm4.707184 0l0 -10.890625l1.671875 0l0 1.65625q0.625 -1.15625 1.15625 -1.53125q0.546875 -0.375 1.203125 -0.375q0.921875 0 1.890625 0.59375l-0.640625 1.71875q-0.671875 -0.40625 -1.34375 -0.40625q-0.609375 0 -1.09375 0.375q-0.484375 0.359375 -0.6875 1.0q-0.3125 0.984375 -0.3125 2.15625l0 5.703125l-1.84375 0zm14.586807 -3.5l1.90625 0.234375q-0.453125 1.671875 -1.671875 2.59375q-1.21875 0.921875 -3.125 0.921875q-2.390625 0 -3.796875 -1.46875q-1.390625 -1.484375 -1.390625 -4.140625q0 -2.734375 1.40625 -4.25q1.421875 -1.53125 3.6875 -1.53125q2.1875 0 3.5625 1.5q1.390625 1.484375 1.390625 4.171875q0 0.171875 -0.015625 0.5l-8.125 0q0.109375 1.796875 1.015625 2.75q0.921875 0.953125 2.28125 0.953125q1.015625 0 1.734375 -0.53125q0.71875 -0.546875 1.140625 -1.703125zm-6.0625 -2.984375l6.078125 0q-0.125 -1.375 -0.703125 -2.0625q-0.875 -1.078125 -2.28125 -1.078125q-1.265625 0 -2.140625 0.859375q-0.859375 0.84375 -0.953125 2.28125zm17.56482 2.5l1.828125 0.234375q-0.296875 1.875 -1.53125 2.9375q-1.21875 1.0625 -3.015625 1.0625q-2.234375 0 -3.59375 -1.453125q-1.34375 -1.46875 -1.34375 -4.203125q0 -1.765625 0.578125 -3.078125q0.578125 -1.328125 1.765625 -1.984375q1.203125 -0.671875 2.609375 -0.671875q1.78125 0 2.90625 0.90625q1.125 0.890625 1.4375 2.546875l-1.78125 0.28125q-0.265625 -1.109375 -0.921875 -1.65625q-0.640625 -0.5625 -1.5625 -0.5625q-1.40625 0 -2.28125 1.0q-0.859375 1.0 -0.859375 3.171875q0 2.1875 0.84375 3.1875q0.84375 1.0 2.1875 1.0q1.09375 0 1.8125 -0.671875q0.734375 -0.671875 0.921875 -2.046875zm7.6015625 2.328125l0.265625 1.640625q-0.78125 0.15625 -1.40625 0.15625q-1.0 0 -1.5625 -0.3125q-0.546875 -0.328125 -0.78125 -0.84375q-0.21875 -0.515625 -0.21875 -2.171875l0 -6.265625l-1.34375 0l0 -1.4375l1.34375 0l0 -2.703125l1.84375 -1.09375l0 3.796875l1.859375 0l0 1.4375l-1.859375 0l0 6.359375q0 0.796875 0.09375 1.03125q0.09375 0.21875 0.3125 0.359375q0.21875 0.125 0.640625 0.125q0.296875 0 0.8125 -0.078125zm1.8943787 -11.25l0 -2.125l1.84375 0l0 2.125l-1.84375 0zm0 12.90625l0 -10.890625l1.84375 0l0 10.890625l-1.84375 0zm7.754074 0l-4.1406403 -10.890625l1.953125 0l2.3281403 6.515625q0.390625 1.0625 0.703125 2.203125q0.25 -0.859375 0.6875 -2.078125l2.421875 -6.640625l1.890625 0l-4.125 10.890625l-1.71875 0zm15.1015625 -3.5l1.90625 0.234375q-0.453125 1.671875 -1.671875 2.59375q-1.21875 0.921875 -3.125 0.921875q-2.390625 0 -3.796875 -1.46875q-1.390625 -1.484375 -1.390625 -4.140625q0 -2.734375 1.40625 -4.25q1.421875 -1.53125 3.6875 -1.53125q2.1875 0 3.5625 1.5q1.390625 1.484375 1.390625 4.171875q0 0.171875 -0.015625 0.5l-8.125 0q0.109375 1.796875 1.015625 2.75q0.921875 0.953125 2.28125 0.953125q1.015625 0 1.734375 -0.53125q0.71875 -0.546875 1.140625 -1.703125zm-6.0625 -2.984375l6.078125 0q-0.125 -1.375 -0.703125 -2.0625q-0.875 -1.078125 -2.28125 -1.078125q-1.265625 0 -2.140625 0.859375q-0.859375 0.84375 -0.953125 2.28125z" fill-rule="nonzero"></path><path fill="#000000" fill-opacity="0.0" d="m428.53806 147.6063l194.92911 0l0 63.59056l-194.92911 0z" fill-rule="nonzero"></path><path fill="#cc0000" d="m476.3449 186.88158l0 -1.375q-1.046875 1.625 -3.046875 1.625q-1.296875 0 -2.390625 -0.71875q-1.09375 -0.71875 -1.703125 -2.0q-0.59375 -1.296875 -0.59375 -2.96875q0 -1.625 0.546875 -2.953125q0.546875 -1.328125 1.625 -2.03125q1.09375 -0.71875 2.4375 -0.71875q0.984375 0 1.75 0.421875q0.765625 0.40625 1.25 1.078125l0 -5.390625l1.828125 0l0 15.03125l-1.703125 0zm-5.84375 -5.4375q0 2.09375 0.875 3.140625q0.890625 1.03125 2.09375 1.03125q1.203125 0 2.046875 -0.984375q0.859375 -1.0 0.859375 -3.03125q0 -2.234375 -0.875 -3.28125q-0.859375 -1.046875 -2.109375 -1.046875q-1.234375 0 -2.0625 1.015625q-0.828125 1.0 -0.828125 3.15625zm17.736694 4.09375q-1.015625 0.875 -1.96875 1.234375q-0.953125 0.359375 -2.03125 0.359375q-1.796875 0 -2.765625 -0.875q-0.953125 -0.875 -0.953125 -2.25q0 -0.796875 0.359375 -1.453125q0.359375 -0.671875 0.953125 -1.0625q0.59375 -0.40625 1.328125 -0.609375q0.546875 -0.140625 1.640625 -0.28125q2.234375 -0.265625 3.296875 -0.625q0 -0.390625 0 -0.484375q0 -1.125 -0.515625 -1.59375q-0.71875 -0.625 -2.109375 -0.625q-1.296875 0 -1.921875 0.453125q-0.625 0.453125 -0.921875 1.625l-1.796875 -0.25q0.25 -1.15625 0.8125 -1.859375q0.5625 -0.71875 1.625 -1.109375q1.0625 -0.390625 2.46875 -0.390625q1.40625 0 2.265625 0.328125q0.875 0.328125 1.28125 0.828125q0.421875 0.5 0.578125 1.265625q0.09375 0.46875 0.09375 1.6875l0 2.46875q0 2.578125 0.109375 3.265625q0.125 0.671875 0.46875 1.296875l-1.921875 0q-0.28125 -0.578125 -0.375 -1.34375zm-0.140625 -4.125q-1.015625 0.40625 -3.015625 0.703125q-1.140625 0.15625 -1.625 0.375q-0.46875 0.203125 -0.71875 0.59375q-0.25 0.390625 -0.25 0.875q0 0.734375 0.546875 1.234375q0.5625 0.484375 1.640625 0.484375q1.0625 0 1.890625 -0.46875q0.84375 -0.46875 1.234375 -1.265625q0.296875 -0.625 0.296875 -1.84375l0 -0.6875zm8.939819 3.8125l0.265625 1.640625q-0.78125 0.15625 -1.40625 0.15625q-1.0 0 -1.5625 -0.3125q-0.546875 -0.328125 -0.78125 -0.84375q-0.21875 -0.515625 -0.21875 -2.171875l0 -6.265625l-1.34375 0l0 -1.4375l1.34375 0l0 -2.703125l1.84375 -1.09375l0 3.796875l1.859375 0l0 1.4375l-1.859375 0l0 6.359375q0 0.796875 0.09375 1.03125q0.09375 0.21875 0.3125 0.359375q0.21875 0.125 0.640625 0.125q0.296875 0 0.8125 -0.078125zm8.988129 0.3125q-1.015625 0.875 -1.96875 1.234375q-0.953125 0.359375 -2.03125 0.359375q-1.796875 0 -2.765625 -0.875q-0.953125 -0.875 -0.953125 -2.25q0 -0.796875 0.359375 -1.453125q0.359375 -0.671875 0.953125 -1.0625q0.59375 -0.40625 1.328125 -0.609375q0.546875 -0.140625 1.640625 -0.28125q2.234375 -0.265625 3.296875 -0.625q0 -0.390625 0 -0.484375q0 -1.125 -0.515625 -1.59375q-0.71875 -0.625 -2.109375 -0.625q-1.296875 0 -1.921875 0.453125q-0.625 0.453125 -0.921875 1.625l-1.796875 -0.25q0.25 -1.15625 0.8125 -1.859375q0.5625 -0.71875 1.625 -1.109375q1.0625 -0.390625 2.46875 -0.390625q1.40625 0 2.265625 0.328125q0.875 0.328125 1.28125 0.828125q0.421875 0.5 0.578125 1.265625q0.09375 0.46875 0.09375 1.6875l0 2.46875q0 2.578125 0.109375 3.265625q0.125 0.671875 0.46875 1.296875l-1.921875 0q-0.28125 -0.578125 -0.375 -1.34375zm-0.140625 -4.125q-1.015625 0.40625 -3.015625 0.703125q-1.140625 0.15625 -1.625 0.375q-0.46875 0.203125 -0.71875 0.59375q-0.25 0.390625 -0.25 0.875q0 0.734375 0.546875 1.234375q0.5625 0.484375 1.640625 0.484375q1.0625 0 1.890625 -0.46875q0.84375 -0.46875 1.234375 -1.265625q0.296875 -0.625 0.296875 -1.84375l0 -0.6875zm12.537323 5.46875l-1.71875 0l0 -15.03125l1.84375 0l0 5.359375q1.171875 -1.46875 2.984375 -1.46875q1.0 0 1.890625 0.40625q0.90625 0.40625 1.484375 1.140625q0.578125 0.734375 0.90625 1.78125q0.328125 1.03125 0.328125 2.203125q0 2.796875 -1.390625 4.328125q-1.375 1.53125 -3.3125 1.53125q-1.921875 0 -3.015625 -1.609375l0 1.359375zm-0.03125 -5.53125q0 1.96875 0.53125 2.828125q0.875 1.4375 2.359375 1.4375q1.21875 0 2.09375 -1.046875q0.890625 -1.0625 0.890625 -3.140625q0 -2.140625 -0.859375 -3.15625q-0.84375 -1.015625 -2.03125 -1.015625q-1.21875 0 -2.109375 1.0625q-0.875 1.046875 -0.875 3.03125zm10.189819 -7.375l0 -2.125l1.84375 0l0 2.125l-1.84375 0zm0 12.90625l0 -10.890625l1.84375 0l0 10.890625l-1.84375 0zm4.7384644 0l0 -10.890625l1.65625 0l0 1.546875q1.203125 -1.796875 3.46875 -1.796875q0.984375 0 1.796875 0.359375q0.828125 0.359375 1.234375 0.9375q0.421875 0.5625 0.578125 1.359375q0.109375 0.5 0.109375 1.78125l0 6.703125l-1.84375 0l0 -6.625q0 -1.125 -0.21875 -1.6875q-0.21875 -0.5625 -0.765625 -0.890625q-0.546875 -0.328125 -1.28125 -0.328125q-1.1875 0 -2.046875 0.75q-0.84375 0.734375 -0.84375 2.828125l0 5.953125l-1.84375 0zm18.924194 0l0 -1.375q-1.046875 1.625 -3.046875 1.625q-1.296875 0 -2.390625 -0.71875q-1.09375 -0.71875 -1.703125 -2.0q-0.59375 -1.296875 -0.59375 -2.96875q0 -1.625 0.546875 -2.953125q0.546875 -1.328125 1.625 -2.03125q1.09375 -0.71875 2.4375 -0.71875q0.984375 0 1.75 0.421875q0.765625 0.40625 1.25 1.078125l0 -5.390625l1.828125 0l0 15.03125l-1.703125 0zm-5.84375 -5.4375q0 2.09375 0.875 3.140625q0.890625 1.03125 2.09375 1.03125q1.203125 0 2.046875 -0.984375q0.859375 -1.0 0.859375 -3.03125q0 -2.234375 -0.875 -3.28125q-0.859375 -1.046875 -2.109375 -1.046875q-1.234375 0 -2.0625 1.015625q-0.828125 1.0 -0.828125 3.15625zm10.642944 -7.46875l0 -2.125l1.84375 0l0 2.125l-1.84375 0zm0 12.90625l0 -10.890625l1.84375 0l0 10.890625l-1.84375 0zm4.7384033 0l0 -10.890625l1.65625 0l0 1.546875q1.203125 -1.796875 3.46875 -1.796875q0.984375 0 1.796875 0.359375q0.828125 0.359375 1.234375 0.9375q0.421875 0.5625 0.578125 1.359375q0.109375 0.5 0.109375 1.78125l0 6.703125l-1.84375 0l0 -6.625q0 -1.125 -0.21875 -1.6875q-0.21875 -0.5625 -0.765625 -0.890625q-0.546875 -0.328125 -1.28125 -0.328125q-1.1875 0 -2.046875 0.75q-0.84375 0.734375 -0.84375 2.828125l0 5.953125l-1.84375 0zm11.517944 0.90625l1.796875 0.265625q0.109375 0.828125 0.625 1.203125q0.6875 0.515625 1.875 0.515625q1.28125 0 1.96875 -0.515625q0.703125 -0.515625 0.953125 -1.4375q0.140625 -0.5625 0.125 -2.359375q-1.203125 1.421875 -3.0 1.421875q-2.25 0 -3.484375 -1.609375q-1.234375 -1.625 -1.234375 -3.890625q0 -1.5625 0.5625 -2.875q0.578125 -1.328125 1.640625 -2.046875q1.078125 -0.71875 2.515625 -0.71875q1.9375 0 3.1875 1.5625l0 -1.3125l1.703125 0l0 9.40625q0 2.546875 -0.53125 3.609375q-0.515625 1.0625 -1.640625 1.671875q-1.109375 0.625 -2.75 0.625q-1.953125 0 -3.15625 -0.875q-1.203125 -0.875 -1.15625 -2.640625zm1.53125 -6.546875q0 2.140625 0.84375 3.125q0.859375 0.984375 2.140625 0.984375q1.265625 0 2.125 -0.96875q0.859375 -0.984375 0.859375 -3.078125q0 -2.0 -0.890625 -3.015625q-0.875 -1.015625 -2.125 -1.015625q-1.234375 0 -2.09375 1.0q-0.859375 1.0 -0.859375 2.96875z" fill-rule="nonzero"></path><path fill="#000000" fill-opacity="0.0" d="m714.2047 147.6063l194.92914 0l0 63.59056l-194.92914 0z" fill-rule="nonzero"></path><path fill="#3d85c6" d="m758.5211 173.88158l0 -10.890625l1.65625 0l0 1.546875q1.203125 -1.796875 3.46875 -1.796875q0.984375 0 1.796875 0.359375q0.828125 0.359375 1.234375 0.9375q0.421875 0.5625 0.578125 1.359375q0.109375 0.5 0.109375 1.78125l0 6.703125l-1.84375 0l0 -6.625q0 -1.125 -0.21875 -1.6875q-0.21875 -0.5625 -0.765625 -0.890625q-0.546875 -0.328125 -1.28125 -0.328125q-1.1875 0 -2.046875 0.75q-0.84375 0.734375 -0.84375 2.828125l0 5.953125l-1.84375 0zm11.517944 0.90625l1.796875 0.265625q0.109375 0.828125 0.625 1.203125q0.6875 0.515625 1.875 0.515625q1.28125 0 1.96875 -0.515625q0.703125 -0.515625 0.953125 -1.4375q0.140625 -0.5625 0.125 -2.359375q-1.203125 1.421875 -3.0 1.421875q-2.25 0 -3.484375 -1.609375q-1.234375 -1.625 -1.234375 -3.890625q0 -1.5625 0.5625 -2.875q0.578125 -1.328125 1.640625 -2.046875q1.078125 -0.71875 2.515625 -0.71875q1.9375 0 3.1875 1.5625l0 -1.3125l1.703125 0l0 9.40625q0 2.546875 -0.53125 3.609375q-0.515625 1.0625 -1.640625 1.671875q-1.109375 0.625 -2.75 0.625q-1.953125 0 -3.15625 -0.875q-1.203125 -0.875 -1.15625 -2.640625zm1.53125 -6.546875q0 2.140625 0.84375 3.125q0.859375 0.984375 2.140625 0.984375q1.265625 0 2.125 -0.96875q0.859375 -0.984375 0.859375 -3.078125q0 -2.0 -0.890625 -3.015625q-0.875 -1.015625 -2.125 -1.015625q-1.234375 0 -2.09375 1.0q-0.859375 1.0 -0.859375 2.96875zm9.955444 1.125l0 -1.859375l5.671875 0l0 1.859375l-5.671875 0zm7.789917 4.515625l0 -10.890625l1.671875 0l0 1.65625q0.625 -1.15625 1.15625 -1.53125q0.546875 -0.375 1.203125 -0.375q0.921875 0 1.890625 0.59375l-0.640625 1.71875q-0.671875 -0.40625 -1.34375 -0.40625q-0.609375 0 -1.09375 0.375q-0.484375 0.359375 -0.6875 1.0q-0.3125 0.984375 -0.3125 2.15625l0 5.703125l-1.84375 0zm14.586853 -3.5l1.90625 0.234375q-0.453125 1.671875 -1.671875 2.59375q-1.21875 0.921875 -3.125 0.921875q-2.390625 0 -3.796875 -1.46875q-1.390625 -1.484375 -1.390625 -4.140625q0 -2.734375 1.40625 -4.25q1.421875 -1.53125 3.6875 -1.53125q2.1875 0 3.5625 1.5q1.390625 1.484375 1.390625 4.171875q0 0.171875 -0.015625 0.5l-8.125 0q0.109375 1.796875 1.015625 2.75q0.921875 0.953125 2.28125 0.953125q1.015625 0 1.734375 -0.53125q0.71875 -0.546875 1.140625 -1.703125zm-6.0625 -2.984375l6.078125 0q-0.125 -1.375 -0.703125 -2.0625q-0.875 -1.078125 -2.28125 -1.078125q-1.265625 0 -2.140625 0.859375q-0.859375 0.84375 -0.953125 2.28125zm17.40857 10.65625l0 -5.328125q-0.4375 0.609375 -1.21875 1.015625q-0.765625 0.390625 -1.640625 0.390625q-1.9375 0 -3.34375 -1.546875q-1.390625 -1.546875 -1.390625 -4.25q0 -1.640625 0.5625 -2.9375q0.578125 -1.3125 1.65625 -1.984375q1.09375 -0.671875 2.375 -0.671875q2.03125 0 3.1875 1.703125l0 -1.453125l1.65625 0l0 15.0625l-1.84375 0zm-5.6875 -9.640625q0 2.09375 0.875 3.15625q0.890625 1.046875 2.109375 1.046875q1.1875 0 2.03125 -1.0q0.859375 -1.0 0.859375 -3.046875q0 -2.171875 -0.90625 -3.265625q-0.890625 -1.109375 -2.109375 -1.109375q-1.1875 0 -2.03125 1.03125q-0.828125 1.015625 -0.828125 3.1875zm17.736694 5.46875l0 -1.59375q-1.265625 1.84375 -3.453125 1.84375q-0.953125 0 -1.796875 -0.375q-0.828125 -0.375 -1.234375 -0.921875q-0.40625 -0.5625 -0.578125 -1.375q-0.109375 -0.546875 -0.109375 -1.71875l0 -6.75l1.84375 0l0 6.046875q0 1.4375 0.109375 1.9375q0.171875 0.734375 0.734375 1.15625q0.578125 0.40625 1.40625 0.40625q0.828125 0 1.546875 -0.421875q0.734375 -0.421875 1.03125 -1.15625q0.3125 -0.734375 0.3125 -2.140625l0 -5.828125l1.84375 0l0 10.890625l-1.65625 0zm4.7366943 -12.90625l0 -2.125l1.84375 0l0 2.125l-1.84375 0zm0 12.90625l0 -10.890625l1.84375 0l0 10.890625l-1.84375 0zm4.7071533 0l0 -10.890625l1.671875 0l0 1.65625q0.625 -1.15625 1.15625 -1.53125q0.546875 -0.375 1.203125 -0.375q0.921875 0 1.890625 0.59375l-0.640625 1.71875q-0.671875 -0.40625 -1.34375 -0.40625q-0.609375 0 -1.09375 0.375q-0.484375 0.359375 -0.6875 1.0q-0.3125 0.984375 -0.3125 2.15625l0 5.703125l-1.84375 0zm14.586792 -3.5l1.90625 0.234375q-0.453125 1.671875 -1.671875 2.59375q-1.21875 0.921875 -3.125 0.921875q-2.390625 0 -3.796875 -1.46875q-1.390625 -1.484375 -1.390625 -4.140625q0 -2.734375 1.40625 -4.25q1.421875 -1.53125 3.6875 -1.53125q2.1875 0 3.5625 1.5q1.390625 1.484375 1.390625 4.171875q0 0.171875 -0.015625 0.5l-8.125 0q0.109375 1.796875 1.015625 2.75q0.921875 0.953125 2.28125 0.953125q1.015625 0 1.734375 -0.53125q0.71875 -0.546875 1.140625 -1.703125zm-6.0625 -2.984375l6.078125 0q-0.125 -1.375 -0.703125 -2.0625q-0.875 -1.078125 -2.28125 -1.078125q-1.265625 0 -2.140625 0.859375q-0.859375 0.84375 -0.953125 2.28125zm17.53357 6.484375l0 -1.375q-1.046875 1.625 -3.046875 1.625q-1.296875 0 -2.390625 -0.71875q-1.09375 -0.71875 -1.703125 -2.0q-0.59375 -1.296875 -0.59375 -2.96875q0 -1.625 0.546875 -2.953125q0.546875 -1.328125 1.625 -2.03125q1.09375 -0.71875 2.4375 -0.71875q0.984375 0 1.75 0.421875q0.765625 0.40625 1.25 1.078125l0 -5.390625l1.828125 0l0 15.03125l-1.703125 0zm-5.84375 -5.4375q0 2.09375 0.875 3.140625q0.890625 1.03125 2.09375 1.03125q1.203125 0 2.046875 -0.984375q0.859375 -1.0 0.859375 -3.03125q0 -2.234375 -0.875 -3.28125q-0.859375 -1.046875 -2.109375 -1.046875q-1.234375 0 -2.0625 1.015625q-0.828125 1.0 -0.828125 3.15625z" fill-rule="nonzero"></path><path fill="#3d85c6" d="m780.4133 199.88158l0 -1.375q-1.046875 1.625 -3.046875 1.625q-1.296875 0 -2.390625 -0.71875q-1.09375 -0.71875 -1.703125 -2.0q-0.59375 -1.296875 -0.59375 -2.96875q0 -1.625 0.546875 -2.953125q0.546875 -1.328125 1.625 -2.03125q1.09375 -0.71875 2.4375 -0.71875q0.984375 0 1.75 0.421875q0.765625 0.40625 1.25 1.078125l0 -5.390625l1.828125 0l0 15.03125l-1.703125 0zm-5.84375 -5.4375q0 2.09375 0.875 3.140625q0.890625 1.03125 2.09375 1.03125q1.203125 0 2.046875 -0.984375q0.859375 -1.0 0.859375 -3.03125q0 -2.234375 -0.875 -3.28125q-0.859375 -1.046875 -2.109375 -1.046875q-1.234375 0 -2.0625 1.015625q-0.828125 1.0 -0.828125 3.15625zm10.642944 -7.46875l0 -2.125l1.84375 0l0 2.125l-1.84375 0zm0 12.90625l0 -10.890625l1.84375 0l0 10.890625l-1.84375 0zm4.7072144 0l0 -10.890625l1.671875 0l0 1.65625q0.625 -1.15625 1.15625 -1.53125q0.546875 -0.375 1.203125 -0.375q0.921875 0 1.890625 0.59375l-0.640625 1.71875q-0.671875 -0.40625 -1.34375 -0.40625q-0.609375 0 -1.09375 0.375q-0.484375 0.359375 -0.6875 1.0q-0.3125 0.984375 -0.3125 2.15625l0 5.703125l-1.84375 0zm14.586792 -3.5l1.90625 0.234375q-0.453125 1.671875 -1.671875 2.59375q-1.21875 0.921875 -3.125 0.921875q-2.390625 0 -3.796875 -1.46875q-1.390625 -1.484375 -1.390625 -4.140625q0 -2.734375 1.40625 -4.25q1.421875 -1.53125 3.6875 -1.53125q2.1875 0 3.5625 1.5q1.390625 1.484375 1.390625 4.171875q0 0.171875 -0.015625 0.5l-8.125 0q0.109375 1.796875 1.015625 2.75q0.921875 0.953125 2.28125 0.953125q1.015625 0 1.734375 -0.53125q0.71875 -0.546875 1.140625 -1.703125zm-6.0625 -2.984375l6.078125 0q-0.125 -1.375 -0.703125 -2.0625q-0.875 -1.078125 -2.28125 -1.078125q-1.265625 0 -2.140625 0.859375q-0.859375 0.84375 -0.953125 2.28125zm17.56482 2.5l1.828125 0.234375q-0.296875 1.875 -1.53125 2.9375q-1.21875 1.0625 -3.015625 1.0625q-2.234375 0 -3.59375 -1.453125q-1.34375 -1.46875 -1.34375 -4.203125q0 -1.765625 0.578125 -3.078125q0.578125 -1.328125 1.765625 -1.984375q1.203125 -0.671875 2.609375 -0.671875q1.78125 0 2.90625 0.90625q1.125 0.890625 1.4375 2.546875l-1.78125 0.28125q-0.265625 -1.109375 -0.921875 -1.65625q-0.640625 -0.5625 -1.5625 -0.5625q-1.40625 0 -2.28125 1.0q-0.859375 1.0 -0.859375 3.171875q0 2.1875 0.84375 3.1875q0.84375 1.0 2.1875 1.0q1.09375 0 1.8125 -0.671875q0.734375 -0.671875 0.921875 -2.046875zm7.6015625 2.328125l0.265625 1.640625q-0.78125 0.15625 -1.40625 0.15625q-1.0 0 -1.5625 -0.3125q-0.546875 -0.328125 -0.78125 -0.84375q-0.21875 -0.515625 -0.21875 -2.171875l0 -6.265625l-1.34375 0l0 -1.4375l1.34375 0l0 -2.703125l1.84375 -1.09375l0 3.796875l1.859375 0l0 1.4375l-1.859375 0l0 6.359375q0 0.796875 0.09375 1.03125q0.09375 0.21875 0.3125 0.359375q0.21875 0.125 0.640625 0.125q0.296875 0 0.8125 -0.078125zm1.8944092 -11.25l0 -2.125l1.84375 0l0 2.125l-1.84375 0zm0 12.90625l0 -10.890625l1.84375 0l0 10.890625l-1.84375 0zm7.7540283 0l-4.140625 -10.890625l1.953125 0l2.328125 6.515625q0.390625 1.0625 0.703125 2.203125q0.25 -0.859375 0.6875 -2.078125l2.421875 -6.640625l1.890625 0l-4.125 10.890625l-1.71875 0zm15.1015625 -3.5l1.90625 0.234375q-0.453125 1.671875 -1.671875 2.59375q-1.21875 0.921875 -3.125 0.921875q-2.390625 0 -3.796875 -1.46875q-1.390625 -1.484375 -1.390625 -4.140625q0 -2.734375 1.40625 -4.25q1.421875 -1.53125 3.6875 -1.53125q2.1875 0 3.5625 1.5q1.390625 1.484375 1.390625 4.171875q0 0.171875 -0.015625 0.5l-8.125 0q0.109375 1.796875 1.015625 2.75q0.921875 0.953125 2.28125 0.953125q1.015625 0 1.734375 -0.53125q0.71875 -0.546875 1.140625 -1.703125zm-6.0625 -2.984375l6.078125 0q-0.125 -1.375 -0.703125 -2.0625q-0.875 -1.078125 -2.28125 -1.078125q-1.265625 0 -2.140625 0.859375q-0.859375 0.84375 -0.953125 2.28125z" fill-rule="nonzero"></path><path fill="#fff2cc" d="m305.63516 508.10498l358.61417 0l0 63.590576l-358.61417 0z" fill-rule="nonzero"></path><path stroke="#666666" stroke-width="1.0" stroke-linejoin="round" stroke-linecap="butt" d="m305.63516 508.10498l358.61417 0l0 63.590576l-358.61417 0z" fill-rule="nonzero"></path><path fill="#000000" d="m318.60828 554.30023l0 -20.75l3.15625 0l0 2.953125q2.296875 -3.421875 6.609375 -3.421875q1.875 0 3.4375 0.6875q1.578125 0.671875 2.359375 1.765625q0.78125 1.09375 1.09375 2.59375q0.203125 0.96875 0.203125 3.421875l0 12.75l-3.515625 0l0 -12.625q0 -2.140625 -0.421875 -3.203125q-0.40625 -1.0625 -1.453125 -1.703125q-1.046875 -0.640625 -2.453125 -0.640625q-2.234375 0 -3.875 1.4375q-1.625 1.421875 -1.625 5.40625l0 11.328125l-3.515625 0zm21.605469 1.71875l3.40625 0.515625q0.21875 1.578125 1.203125 2.296875q1.296875 0.984375 3.5625 0.984375q2.453125 0 3.78125 -0.984375q1.328125 -0.96875 1.796875 -2.734375q0.265625 -1.078125 0.25 -4.515625q-2.3125 2.71875 -5.75 2.71875q-4.265625 0 -6.609375 -3.078125q-2.34375 -3.09375 -2.34375 -7.40625q0 -2.96875 1.0625 -5.484375q1.078125 -2.515625 3.109375 -3.875q2.046875 -1.375 4.8125 -1.375q3.671875 0 6.046875 2.96875l0 -2.5l3.25 0l0 17.9375q0 4.84375 -1.0 6.859375q-0.984375 2.03125 -3.125 3.203125q-2.125 1.171875 -5.25 1.171875q-3.71875 0 -6.0 -1.671875q-2.28125 -1.671875 -2.203125 -5.03125zm2.90625 -12.46875q0 4.09375 1.609375 5.96875q1.625 1.875 4.078125 1.875q2.421875 0 4.0625 -1.859375q1.640625 -1.875 1.640625 -5.859375q0 -3.8125 -1.703125 -5.734375q-1.6875 -1.9375 -4.0625 -1.9375q-2.34375 0 -3.984375 1.90625q-1.640625 1.890625 -1.640625 5.640625zm20.308594 10.75l0 -28.640625l5.703125 0l6.78125 20.28125q0.9375 2.828125 1.359375 4.234375q0.5 -1.5625 1.53125 -4.59375l6.859375 -19.921875l5.09375 0l0 28.640625l-3.65625 0l0 -23.96875l-8.3125 23.96875l-3.421875 0l-8.28125 -24.375l0 24.375l-3.65625 0zm31.679688 -10.375q0 -5.765625 3.203125 -8.53125q2.671875 -2.3125 6.53125 -2.3125q4.265625 0 6.984375 2.8125q2.71875 2.796875 2.71875 7.734375q0 4.015625 -1.203125 6.3125q-1.203125 2.28125 -3.5 3.5625q-2.296875 1.265625 -5.0 1.265625q-4.359375 0 -7.046875 -2.796875q-2.6875 -2.796875 -2.6875 -8.046875zm3.609375 0q0 3.984375 1.734375 5.96875q1.75 1.984375 4.390625 1.984375q2.609375 0 4.34375 -1.984375q1.75 -2.0 1.75 -6.078125q0 -3.859375 -1.75 -5.828125q-1.75 -1.984375 -4.34375 -1.984375q-2.640625 0 -4.390625 1.96875q-1.734375 1.96875 -1.734375 5.953125zm33.402344 10.375l0 -2.625q-1.96875 3.09375 -5.796875 3.09375q-2.484375 0 -4.5625 -1.359375q-2.078125 -1.375 -3.21875 -3.828125q-1.140625 -2.453125 -1.140625 -5.640625q0 -3.09375 1.03125 -5.625q1.03125 -2.53125 3.09375 -3.875q2.078125 -1.359375 4.640625 -1.359375q1.875 0 3.328125 0.796875q1.46875 0.796875 2.390625 2.0625l0 -10.28125l3.5 0l0 28.640625l-3.265625 0zm-11.109375 -10.359375q0 3.984375 1.671875 5.96875q1.6875 1.96875 3.96875 1.96875q2.3125 0 3.921875 -1.875q1.609375 -1.890625 1.609375 -5.765625q0 -4.25 -1.640625 -6.234375q-1.640625 -2.0 -4.046875 -2.0q-2.34375 0 -3.921875 1.921875q-1.5625 1.90625 -1.5625 6.015625zm34.10547 3.671875l3.625 0.453125q-0.859375 3.1875 -3.1875 4.953125q-2.3125 1.75 -5.9375 1.75q-4.546875 0 -7.21875 -2.796875q-2.65625 -2.8125 -2.65625 -7.875q0 -5.234375 2.6875 -8.125q2.703125 -2.890625 7.0 -2.890625q4.15625 0 6.796875 2.84375q2.640625 2.828125 2.640625 7.96875q0 0.3125 -0.03125 0.9375l-15.46875 0q0.203125 3.40625 1.9375 5.234375q1.734375 1.8125 4.34375 1.8125q1.921875 0 3.28125 -1.015625q1.375 -1.015625 2.1875 -3.25zm-11.546875 -5.671875l11.578125 0q-0.234375 -2.625 -1.328125 -3.9375q-1.671875 -2.03125 -4.359375 -2.03125q-2.421875 0 -4.078125 1.625q-1.640625 1.625 -1.8125 4.34375zm19.511719 12.359375l0 -28.640625l3.515625 0l0 28.640625l-3.515625 0zm40.953125 -10.046875l3.796875 0.96875q-1.203125 4.65625 -4.296875 7.109375q-3.09375 2.453125 -7.5625 2.453125q-4.625 0 -7.53125 -1.875q-2.90625 -1.890625 -4.421875 -5.46875q-1.5 -3.578125 -1.5 -7.671875q0 -4.46875 1.703125 -7.796875q1.703125 -3.34375 4.859375 -5.0625q3.15625 -1.734375 6.953125 -1.734375q4.296875 0 7.21875 2.1875q2.9375 2.1875 4.078125 6.15625l-3.71875 0.875q-1.0 -3.125 -2.90625 -4.546875q-1.890625 -1.421875 -4.75 -1.421875q-3.3125 0 -5.53125 1.578125q-2.203125 1.578125 -3.109375 4.25q-0.890625 2.65625 -0.890625 5.5q0 3.640625 1.0625 6.375q1.0625 2.71875 3.296875 4.078125q2.25 1.34375 4.875 1.34375q3.1875 0 5.390625 -1.828125q2.203125 -1.84375 2.984375 -5.46875zm6.6992188 -0.328125q0 -5.765625 3.203125 -8.53125q2.671875 -2.3125 6.53125 -2.3125q4.265625 0 6.984375 2.8125q2.71875 2.796875 2.71875 7.734375q0 4.015625 -1.203125 6.3125q-1.203125 2.28125 -3.5 3.5625q-2.296875 1.265625 -5.0 1.265625q-4.359375 0 -7.046875 -2.796875q-2.6875 -2.796875 -2.6875 -8.046875zm3.609375 0q0 3.984375 1.734375 5.96875q1.75 1.984375 4.390625 1.984375q2.609375 0 4.34375 -1.984375q1.75 -2.0 1.75 -6.078125q0 -3.859375 -1.75 -5.828125q-1.75 -1.984375 -4.34375 -1.984375q-2.640625 0 -4.390625 1.96875q-1.734375 1.96875 -1.734375 5.953125zm19.949219 10.375l0 -20.75l3.15625 0l0 2.953125q2.296875 -3.421875 6.609375 -3.421875q1.875 0 3.4375 0.6875q1.578125 0.671875 2.359375 1.765625q0.78125 1.09375 1.09375 2.59375q0.203125 0.96875 0.203125 3.421875l0 12.75l-3.515625 0l0 -12.625q0 -2.140625 -0.421875 -3.203125q-0.40625 -1.0625 -1.453125 -1.703125q-1.046875 -0.640625 -2.453125 -0.640625q-2.234375 0 -3.875 1.4375q-1.625 1.421875 -1.625 5.40625l0 11.328125l-3.515625 0zm29.917969 -3.140625l0.515625 3.09375q-1.484375 0.328125 -2.65625 0.328125q-1.921875 0 -2.984375 -0.609375q-1.046875 -0.609375 -1.484375 -1.59375q-0.421875 -0.984375 -0.421875 -4.15625l0 -11.9375l-2.578125 0l0 -2.734375l2.578125 0l0 -5.125l3.5 -2.109375l0 7.234375l3.53125 0l0 2.734375l-3.53125 0l0 12.140625q0 1.5 0.1875 1.9375q0.1875 0.421875 0.59375 0.671875q0.421875 0.25 1.203125 0.25q0.59375 0 1.546875 -0.125zm3.3945312 3.140625l0 -20.75l3.171875 0l0 3.15625q1.203125 -2.21875 2.234375 -2.921875q1.03125 -0.703125 2.25 -0.703125q1.78125 0 3.625 1.140625l-1.21875 3.265625q-1.28125 -0.765625 -2.578125 -0.765625q-1.15625 0 -2.078125 0.703125q-0.90625 0.6875 -1.296875 1.90625q-0.59375 1.875 -0.59375 4.109375l0 10.859375l-3.515625 0zm12.0546875 -10.375q0 -5.765625 3.203125 -8.53125q2.671875 -2.3125 6.53125 -2.3125q4.265625 0 6.984375 2.8125q2.71875 2.796875 2.71875 7.734375q0 4.015625 -1.203125 6.3125q-1.203125 2.28125 -3.5 3.5625q-2.296875 1.265625 -5.0 1.265625q-4.359375 0 -7.046875 -2.796875q-2.6875 -2.796875 -2.6875 -8.046875zm3.609375 0q0 3.984375 1.734375 5.96875q1.75 1.984375 4.390625 1.984375q2.609375 0 4.34375 -1.984375q1.75 -2.0 1.75 -6.078125q0 -3.859375 -1.75 -5.828125q-1.75 -1.984375 -4.34375 -1.984375q-2.640625 0 -4.390625 1.96875q-1.734375 1.96875 -1.734375 5.953125zm19.871094 10.375l0 -28.640625l3.515625 0l0 28.640625l-3.515625 0zm8.886719 0l0 -28.640625l3.515625 0l0 28.640625l-3.515625 0zm23.167969 -6.6875l3.625 0.453125q-0.859375 3.1875 -3.1875 4.953125q-2.3125 1.75 -5.9375 1.75q-4.546875 0 -7.21875 -2.796875q-2.65625 -2.8125 -2.65625 -7.875q0 -5.234375 2.6875 -8.125q2.703125 -2.890625 7.0 -2.890625q4.15625 0 6.796875 2.84375q2.640625 2.828125 2.640625 7.96875q0 0.3125 -0.03125 0.9375l-15.46875 0q0.203125 3.40625 1.9375 5.234375q1.734375 1.8125 4.34375 1.8125q1.921875 0 3.28125 -1.015625q1.375 -1.015625 2.1875 -3.25zm-11.546875 -5.671875l11.578125 0q-0.234375 -2.625 -1.328125 -3.9375q-1.671875 -2.03125 -4.359375 -2.03125q-2.421875 0 -4.078125 1.625q-1.640625 1.625 -1.8125 4.34375zm19.542969 12.359375l0 -20.75l3.171875 0l0 3.15625q1.203125 -2.21875 2.234375 -2.921875q1.03125 -0.703125 2.25 -0.703125q1.78125 0 3.625 1.140625l-1.21875 3.265625q-1.28125 -0.765625 -2.578125 -0.765625q-1.15625 0 -2.078125 0.703125q-0.90625 0.6875 -1.296875 1.90625q-0.59375 1.875 -0.59375 4.109375l0 10.859375l-3.515625 0z" fill-rule="nonzero"></path><path fill="#000000" fill-opacity="0.0" d="m479.72177 260.2047l0 226.14175" fill-rule="nonzero"></path><path stroke="#000000" stroke-width="4.0" stroke-linejoin="round" stroke-linecap="butt" d="m479.72177 260.2047l0 202.14175" fill-rule="evenodd"></path><path fill="#000000" stroke="#000000" stroke-width="4.0" stroke-linecap="butt" d="m473.11487 462.34647l6.606903 18.152374l6.6069336 -18.152374z" fill-rule="evenodd"></path><path fill="#000000" fill-opacity="0.0" d="m481.05774 341.48032l89.88977 0l0 63.590546l-89.88977 0z" fill-rule="nonzero"></path><path fill="#000000" d="m503.10043 376.5862l1.640625 0.21875q-0.265625 1.6875 -1.375 2.65625q-1.109375 0.953125 -2.734375 0.953125q-2.015625 0 -3.25 -1.3125q-1.21875 -1.328125 -1.21875 -3.796875q0 -1.59375 0.515625 -2.78125q0.53125 -1.203125 1.609375 -1.796875q1.09375 -0.609375 2.359375 -0.609375q1.609375 0 2.625 0.8125q1.015625 0.8125 1.3125 2.3125l-1.625 0.25q-0.234375 -1.0 -0.828125 -1.5q-0.59375 -0.5 -1.421875 -0.5q-1.265625 0 -2.0625 0.90625q-0.78125 0.90625 -0.78125 2.859375q0 1.984375 0.765625 2.890625q0.765625 0.890625 1.984375 0.890625q0.984375 0 1.640625 -0.59375q0.65625 -0.609375 0.84375 -1.859375zm2.875 3.609375l0 -9.859375l1.5 0l0 1.5q0.578125 -1.046875 1.0625 -1.375q0.484375 -0.34375 1.078125 -0.34375q0.84375 0 1.71875 0.546875l-0.578125 1.546875q-0.609375 -0.359375 -1.234375 -0.359375q-0.546875 0 -0.984375 0.328125q-0.421875 0.328125 -0.609375 0.90625q-0.28125 0.890625 -0.28125 1.953125l0 5.15625l-1.671875 0zm12.978302 -3.171875l1.71875 0.21875q-0.40625 1.5 -1.515625 2.34375q-1.09375 0.828125 -2.8125 0.828125q-2.15625 0 -3.421875 -1.328125q-1.265625 -1.328125 -1.265625 -3.734375q0 -2.484375 1.265625 -3.859375q1.28125 -1.375 3.328125 -1.375q1.984375 0 3.234375 1.34375q1.25 1.34375 1.25 3.796875q0 0.140625 -0.015625 0.4375l-7.34375 0q0.09375 1.625 0.921875 2.484375q0.828125 0.859375 2.0625 0.859375q0.90625 0 1.546875 -0.46875q0.65625 -0.484375 1.046875 -1.546875zm-5.484375 -2.703125l5.5 0q-0.109375 -1.234375 -0.625 -1.859375q-0.796875 -0.96875 -2.078125 -0.96875q-1.140625 0 -1.9375 0.78125q-0.78125 0.765625 -0.859375 2.046875zm15.547607 4.65625q-0.9375 0.796875 -1.796875 1.125q-0.859375 0.3125 -1.84375 0.3125q-1.609375 0 -2.484375 -0.78125q-0.875 -0.796875 -0.875 -2.03125q0 -0.734375 0.328125 -1.328125q0.328125 -0.59375 0.859375 -0.953125q0.53125 -0.359375 1.203125 -0.546875q0.5 -0.140625 1.484375 -0.25q2.03125 -0.25 2.984375 -0.578125q0 -0.34375 0 -0.4375q0 -1.015625 -0.46875 -1.4375q-0.640625 -0.5625 -1.90625 -0.5625q-1.171875 0 -1.734375 0.40625q-0.5625 0.40625 -0.828125 1.46875l-1.640625 -0.234375q0.234375 -1.046875 0.734375 -1.6875q0.515625 -0.640625 1.46875 -0.984375q0.96875 -0.359375 2.25 -0.359375q1.265625 0 2.046875 0.296875q0.78125 0.296875 1.15625 0.75q0.375 0.453125 0.515625 1.140625q0.09375 0.421875 0.09375 1.53125l0 2.234375q0 2.328125 0.09375 2.953125q0.109375 0.609375 0.4375 1.171875l-1.75 0q-0.265625 -0.515625 -0.328125 -1.21875zm-0.140625 -3.71875q-0.90625 0.359375 -2.734375 0.625q-1.03125 0.140625 -1.453125 0.328125q-0.421875 0.1875 -0.65625 0.546875q-0.234375 0.359375 -0.234375 0.796875q0 0.671875 0.5 1.125q0.515625 0.4375 1.484375 0.4375q0.96875 0 1.71875 -0.421875q0.75 -0.4375 1.109375 -1.15625q0.265625 -0.578125 0.265625 -1.671875l0 -0.609375zm7.7350464 3.4375l0.234375 1.484375q-0.703125 0.140625 -1.265625 0.140625q-0.90625 0 -1.40625 -0.28125q-0.5 -0.296875 -0.703125 -0.75q-0.203125 -0.46875 -0.203125 -1.984375l0 -5.65625l-1.234375 0l0 -1.3125l1.234375 0l0 -2.4375l1.65625 -1.0l0 3.4375l1.6875 0l0 1.3125l-1.6875 0l0 5.75q0 0.71875 0.078125 0.921875q0.09375 0.203125 0.296875 0.328125q0.203125 0.125 0.578125 0.125q0.265625 0 0.734375 -0.078125zm8.2771 -1.671875l1.71875 0.21875q-0.40625 1.5 -1.515625 2.34375q-1.09375 0.828125 -2.8125 0.828125q-2.15625 0 -3.421875 -1.328125q-1.265625 -1.328125 -1.265625 -3.734375q0 -2.484375 1.265625 -3.859375q1.28125 -1.375 3.328125 -1.375q1.984375 0 3.234375 1.34375q1.25 1.34375 1.25 3.796875q0 0.140625 -0.015625 0.4375l-7.34375 0q0.09375 1.625 0.921875 2.484375q0.828125 0.859375 2.0625 0.859375q0.90625 0 1.546875 -0.46875q0.65625 -0.484375 1.046875 -1.546875zm-5.484375 -2.703125l5.5 0q-0.109375 -1.234375 -0.625 -1.859375q-0.796875 -0.96875 -2.078125 -0.96875q-1.140625 0 -1.9375 0.78125q-0.78125 0.765625 -0.859375 2.046875zm8.438232 2.9375l1.65625 -0.265625q0.140625 1.0 0.765625 1.53125q0.640625 0.515625 1.78125 0.515625q1.15625 0 1.703125 -0.46875q0.5625 -0.46875 0.5625 -1.09375q0 -0.5625 -0.484375 -0.890625q-0.34375 -0.21875 -1.703125 -0.5625q-1.84375 -0.46875 -2.5625 -0.796875q-0.703125 -0.34375 -1.078125 -0.9375q-0.359375 -0.609375 -0.359375 -1.328125q0 -0.65625 0.296875 -1.21875q0.3125 -0.5625 0.828125 -0.9375q0.390625 -0.28125 1.0625 -0.484375q0.671875 -0.203125 1.4375 -0.203125q1.171875 0 2.046875 0.34375q0.875 0.328125 1.28125 0.90625q0.421875 0.5625 0.578125 1.515625l-1.625 0.21875q-0.109375 -0.75 -0.65625 -1.171875q-0.53125 -0.4375 -1.5 -0.4375q-1.15625 0 -1.640625 0.390625q-0.484375 0.375 -0.484375 0.875q0 0.328125 0.203125 0.59375q0.203125 0.265625 0.640625 0.4375q0.25 0.09375 1.46875 0.4375q1.765625 0.46875 2.46875 0.765625q0.703125 0.296875 1.09375 0.875q0.40625 0.578125 0.40625 1.4375q0 0.828125 -0.484375 1.578125q-0.484375 0.734375 -1.40625 1.140625q-0.921875 0.390625 -2.078125 0.390625q-1.921875 0 -2.9375 -0.796875q-1.0 -0.796875 -1.28125 -2.359375z" fill-rule="nonzero"></path><path fill="#000000" fill-opacity="0.0" d="m165.5853 259.25723l175.05511 224.25195" fill-rule="nonzero"></path><path stroke="#000000" stroke-width="4.0" stroke-linejoin="round" stroke-linecap="butt" d="m165.5853 259.25723l160.28711 205.33356" fill-rule="evenodd"></path><path fill="#000000" stroke="#000000" stroke-width="4.0" stroke-linecap="butt" d="m320.66437 468.65628l16.377808 10.243439l-5.9617615 -18.37439z" fill-rule="evenodd"></path><path fill="#000000" fill-opacity="0.0" d="m793.8583 259.25723l-175.05511 224.25195" fill-rule="nonzero"></path><path stroke="#000000" stroke-width="4.0" stroke-linejoin="round" stroke-linecap="butt" d="m793.8583 259.25723l-160.28711 205.33356" fill-rule="evenodd"></path><path fill="#000000" stroke="#000000" stroke-width="4.0" stroke-linecap="butt" d="m628.36316 460.52533l-5.961792 18.37439l16.377808 -10.243439z" fill-rule="evenodd"></path><path fill="#000000" fill-opacity="0.0" d="m143.35432 341.48032l89.88977 0l0 63.590546l-89.88977 0z" fill-rule="nonzero"></path><path fill="#000000" d="m176.2985 380.1956l0 -1.453125q-1.140625 1.671875 -3.125 1.671875q-0.859375 0 -1.625 -0.328125q-0.75 -0.34375 -1.125 -0.84375q-0.359375 -0.5 -0.515625 -1.234375q-0.09375 -0.5 -0.09375 -1.5625l0 -6.109375l1.671875 0l0 5.46875q0 1.3125 0.09375 1.765625q0.15625 0.65625 0.671875 1.03125q0.515625 0.375 1.265625 0.375q0.75 0 1.40625 -0.375q0.65625 -0.390625 0.921875 -1.046875q0.28125 -0.671875 0.28125 -1.9375l0 -5.28125l1.671875 0l0 9.859375l-1.5 0zm3.2507172 -2.9375l1.65625 -0.265625q0.140625 1.0 0.765625 1.53125q0.640625 0.515625 1.78125 0.515625q1.15625 0 1.703125 -0.46875q0.5625 -0.46875 0.5625 -1.09375q0 -0.5625 -0.484375 -0.890625q-0.34375 -0.21875 -1.703125 -0.5625q-1.84375 -0.46875 -2.5625 -0.796875q-0.703125 -0.34375 -1.078125 -0.9375q-0.359375 -0.609375 -0.359375 -1.328125q0 -0.65625 0.296875 -1.21875q0.3125 -0.5625 0.828125 -0.9375q0.390625 -0.28125 1.0625 -0.484375q0.671875 -0.203125 1.4375 -0.203125q1.171875 0 2.046875 0.34375q0.875 0.328125 1.28125 0.90625q0.421875 0.5625 0.578125 1.515625l-1.625 0.21875q-0.109375 -0.75 -0.65625 -1.171875q-0.53125 -0.4375 -1.5 -0.4375q-1.15625 0 -1.640625 0.390625q-0.484375 0.375 -0.484375 0.875q0 0.328125 0.203125 0.59375q0.203125 0.265625 0.640625 0.4375q0.25 0.09375 1.46875 0.4375q1.765625 0.46875 2.46875 0.765625q0.703125 0.296875 1.09375 0.875q0.40625 0.578125 0.40625 1.4375q0 0.828125 -0.484375 1.578125q-0.484375 0.734375 -1.40625 1.140625q-0.921875 0.390625 -2.078125 0.390625q-1.921875 0 -2.9375 -0.796875q-1.0 -0.796875 -1.28125 -2.359375zm16.75 -0.234375l1.71875 0.21875q-0.40625 1.5 -1.515625 2.34375q-1.09375 0.828125 -2.8125 0.828125q-2.15625 0 -3.421875 -1.328125q-1.265625 -1.328125 -1.265625 -3.734375q0 -2.484375 1.265625 -3.859375q1.28125 -1.375 3.328125 -1.375q1.984375 0 3.234375 1.34375q1.25 1.34375 1.25 3.796875q0 0.140625 -0.015625 0.4375l-7.34375 0q0.09375 1.625 0.921875 2.484375q0.828125 0.859375 2.0625 0.859375q0.90625 0 1.546875 -0.46875q0.65625 -0.484375 1.046875 -1.546875zm-5.484375 -2.703125l5.5 0q-0.109375 -1.234375 -0.625 -1.859375q-0.796875 -0.96875 -2.078125 -0.96875q-1.140625 0 -1.9375 0.78125q-0.78125 0.765625 -0.859375 2.046875zm8.438217 2.9375l1.65625 -0.265625q0.140625 1.0 0.765625 1.53125q0.640625 0.515625 1.78125 0.515625q1.15625 0 1.703125 -0.46875q0.5625 -0.46875 0.5625 -1.09375q0 -0.5625 -0.484375 -0.890625q-0.34375 -0.21875 -1.703125 -0.5625q-1.84375 -0.46875 -2.5625 -0.796875q-0.703125 -0.34375 -1.078125 -0.9375q-0.359375 -0.609375 -0.359375 -1.328125q0 -0.65625 0.296875 -1.21875q0.3125 -0.5625 0.828125 -0.9375q0.390625 -0.28125 1.0625 -0.484375q0.671875 -0.203125 1.4375 -0.203125q1.171875 0 2.046875 0.34375q0.875 0.328125 1.28125 0.90625q0.421875 0.5625 0.578125 1.515625l-1.625 0.21875q-0.109375 -0.75 -0.65625 -1.171875q-0.53125 -0.4375 -1.5 -0.4375q-1.15625 0 -1.640625 0.390625q-0.484375 0.375 -0.484375 0.875q0 0.328125 0.203125 0.59375q0.203125 0.265625 0.640625 0.4375q0.25 0.09375 1.46875 0.4375q1.765625 0.46875 2.46875 0.765625q0.703125 0.296875 1.09375 0.875q0.40625 0.578125 0.40625 1.4375q0 0.828125 -0.484375 1.578125q-0.484375 0.734375 -1.40625 1.140625q-0.921875 0.390625 -2.078125 0.390625q-1.921875 0 -2.9375 -0.796875q-1.0 -0.796875 -1.28125 -2.359375z" fill-rule="nonzero"></path><path fill="#000000" fill-opacity="0.0" d="m734.55383 339.58792l89.88971 0l0 63.590546l-89.88971 0z" fill-rule="nonzero"></path><path fill="#000000" d="m767.498 378.3032l0 -1.453125q-1.140625 1.671875 -3.125 1.671875q-0.859375 0 -1.625 -0.328125q-0.75 -0.34375 -1.125 -0.84375q-0.359375 -0.5 -0.515625 -1.234375q-0.09375 -0.5 -0.09375 -1.5625l0 -6.109375l1.671875 0l0 5.46875q0 1.3125 0.09375 1.765625q0.15625 0.65625 0.671875 1.03125q0.515625 0.375 1.265625 0.375q0.75 0 1.40625 -0.375q0.65625 -0.390625 0.921875 -1.046875q0.28125 -0.671875 0.28125 -1.9375l0 -5.28125l1.671875 0l0 9.859375l-1.5 0zm3.2506714 -2.9375l1.65625 -0.265625q0.140625 1.0 0.765625 1.53125q0.640625 0.515625 1.78125 0.515625q1.15625 0 1.703125 -0.46875q0.5625 -0.46875 0.5625 -1.09375q0 -0.5625 -0.484375 -0.890625q-0.34375 -0.21875 -1.703125 -0.5625q-1.84375 -0.46875 -2.5625 -0.796875q-0.703125 -0.34375 -1.078125 -0.9375q-0.359375 -0.609375 -0.359375 -1.328125q0 -0.65625 0.296875 -1.21875q0.3125 -0.5625 0.828125 -0.9375q0.390625 -0.28125 1.0625 -0.484375q0.671875 -0.203125 1.4375 -0.203125q1.171875 0 2.046875 0.34375q0.875 0.328125 1.28125 0.90625q0.421875 0.5625 0.578125 1.515625l-1.625 0.21875q-0.109375 -0.75 -0.65625 -1.171875q-0.53125 -0.4375 -1.5 -0.4375q-1.15625 0 -1.640625 0.390625q-0.484375 0.375 -0.484375 0.875q0 0.328125 0.203125 0.59375q0.203125 0.265625 0.640625 0.4375q0.25 0.09375 1.46875 0.4375q1.765625 0.46875 2.46875 0.765625q0.703125 0.296875 1.09375 0.875q0.40625 0.578125 0.40625 1.4375q0 0.828125 -0.484375 1.578125q-0.484375 0.734375 -1.40625 1.140625q-0.921875 0.390625 -2.078125 0.390625q-1.921875 0 -2.9375 -0.796875q-1.0 -0.796875 -1.28125 -2.359375zm16.75 -0.234375l1.71875 0.21875q-0.40625 1.5 -1.515625 2.34375q-1.09375 0.828125 -2.8125 0.828125q-2.15625 0 -3.421875 -1.328125q-1.265625 -1.328125 -1.265625 -3.734375q0 -2.484375 1.265625 -3.859375q1.28125 -1.375 3.328125 -1.375q1.984375 0 3.234375 1.34375q1.25 1.34375 1.25 3.796875q0 0.140625 -0.015625 0.4375l-7.34375 0q0.09375 1.625 0.921875 2.484375q0.828125 0.859375 2.0625 0.859375q0.90625 0 1.546875 -0.46875q0.65625 -0.484375 1.046875 -1.546875zm-5.484375 -2.703125l5.5 0q-0.109375 -1.234375 -0.625 -1.859375q-0.796875 -0.96875 -2.078125 -0.96875q-1.140625 0 -1.9375 0.78125q-0.78125 0.765625 -0.859375 2.046875zm8.438232 2.9375l1.65625 -0.265625q0.140625 1.0 0.765625 1.53125q0.640625 0.515625 1.78125 0.515625q1.15625 0 1.703125 -0.46875q0.5625 -0.46875 0.5625 -1.09375q0 -0.5625 -0.484375 -0.890625q-0.34375 -0.21875 -1.703125 -0.5625q-1.84375 -0.46875 -2.5625 -0.796875q-0.703125 -0.34375 -1.078125 -0.9375q-0.359375 -0.609375 -0.359375 -1.328125q0 -0.65625 0.296875 -1.21875q0.3125 -0.5625 0.828125 -0.9375q0.390625 -0.28125 1.0625 -0.484375q0.671875 -0.203125 1.4375 -0.203125q1.171875 0 2.046875 0.34375q0.875 0.328125 1.28125 0.90625q0.421875 0.5625 0.578125 1.515625l-1.625 0.21875q-0.109375 -0.75 -0.65625 -1.171875q-0.53125 -0.4375 -1.5 -0.4375q-1.15625 0 -1.640625 0.390625q-0.484375 0.375 -0.484375 0.875q0 0.328125 0.203125 0.59375q0.203125 0.265625 0.640625 0.4375q0.25 0.09375 1.46875 0.4375q1.765625 0.46875 2.46875 0.765625q0.703125 0.296875 1.09375 0.875q0.40625 0.578125 0.40625 1.4375q0 0.828125 -0.484375 1.578125q-0.484375 0.734375 -1.40625 1.140625q-0.921875 0.390625 -2.078125 0.390625q-1.921875 0 -2.9375 -0.796875q-1.0 -0.796875 -1.28125 -2.359375z" fill-rule="nonzero"></path></g></svg>

